<svg width="30" height="22" viewBox="0 0 30 22" fill="none" xmlns="http://www.w3.org/2000/svg">
<g clip-path="url(#clip0_5008_105)">
<path d="M1 1H29V21H1V1Z" fill="#007C30"/>
<path d="M1 14.4503H29V1H1" fill="#CE1720"/>
<path d="M6.45809 14.4503V1H1V21H29H6.45809V14.4503Z" fill="white"/>
<path d="M2.52835 10.3333L1.46948 8.49705L2.52835 6.69588L3.58176 8.49705L2.52835 10.3333ZM4.96266 10.3333L3.90925 8.49705L4.96266 6.69588L6.02153 8.49705L4.96266 10.3333ZM2.52835 15.1052L1.46948 13.269L2.52835 11.4678L3.58176 13.269L2.52835 15.1052ZM4.96266 15.1052L3.90925 13.269L4.96266 11.4678L6.02153 13.269L4.96266 15.1052Z" fill="#CE1720"/>
<path d="M2.52817 5.31581L1.64941 3.79534L2.52817 2.29826L3.40146 3.79534L2.52817 5.31581ZM4.96247 5.31581L4.08918 3.79534L4.96247 2.29826L5.84123 3.79534L4.96247 5.31581ZM2.52817 19.5965L1.64941 18.0702L2.52817 16.5731L3.40146 18.0702L2.52817 19.5965ZM4.96247 19.5965L4.08918 18.0702L4.96247 16.5731L5.84123 18.0702L4.96247 19.5965Z" stroke="#CE1720" stroke-width="0.37911"/>
</g>
<rect x="0.5" y="0.5" width="29" height="21" rx="3.5" stroke="#DFDFDF"/>
<defs>
<clipPath id="clip0_5008_105">
<rect x="1" y="1" width="28" height="20" rx="3" fill="white"/>
</clipPath>
</defs>
</svg>
