<svg width="71" height="25" viewBox="0 0 71 25" fill="none" xmlns="http://www.w3.org/2000/svg">
<path d="M1.30083 9.8956C0.94125 9.86577 0.63455 9.73154 0.38073 9.49292C0.12691 9.25429 0 8.95849 0 8.60552V1.44668C0 1.26771 0.0343715 1.09868 0.103114 0.939597C0.177145 0.775541 0.277616 0.63137 0.404526 0.507084C0.668922 0.248571 0.999417 0.119314 1.39601 0.119314H5.60784C5.7982 0.119314 5.97799 0.154114 6.14721 0.223714C6.31642 0.288342 6.46713 0.382799 6.59932 0.507084C6.72623 0.63137 6.82406 0.775541 6.8928 0.939597C6.96155 1.10365 6.99592 1.27268 6.99592 1.44668C6.99592 1.62565 6.96155 1.79717 6.8928 1.96122C6.82406 2.12528 6.72623 2.26696 6.59932 2.38628C6.46713 2.51056 6.31642 2.60751 6.14721 2.67711C5.97799 2.74173 5.7982 2.77405 5.60784 2.77405H2.81582V3.57196H4.99708C5.18745 3.57196 5.36724 3.60428 5.53645 3.6689C5.71095 3.73353 5.86166 3.8255 5.98857 3.94482C6.11548 4.06413 6.21595 4.20582 6.28998 4.36987C6.36401 4.52896 6.40103 4.69799 6.40103 4.87696C6.40103 5.05593 6.36401 5.22247 6.28998 5.37658C6.22124 5.5307 6.12077 5.66493 5.98857 5.77927C5.85637 5.89361 5.70567 5.9831 5.53645 6.04773C5.36724 6.11235 5.18745 6.14467 4.99708 6.14467H2.81582V7.25578H5.60784C5.7982 7.25578 5.97799 7.29058 6.14721 7.36018C6.31642 7.42481 6.46713 7.51926 6.59932 7.64355C6.72623 7.76783 6.82406 7.91449 6.8928 8.08352C6.96155 8.24758 6.99592 8.41909 6.99592 8.59806C6.99592 8.97092 6.86372 9.28163 6.59932 9.5302C6.47241 9.64454 6.32171 9.73403 6.14721 9.79866C5.97799 9.86329 5.7982 9.8956 5.60784 9.8956H1.30083Z" fill="#F63235"/>
<path d="M9.70069 10C9.49975 10 9.30938 9.9652 9.12959 9.8956C8.95509 9.826 8.80439 9.72906 8.67748 9.60477C8.54528 9.48049 8.43952 9.33632 8.3602 9.17226C8.28617 9.0082 8.24915 8.8342 8.24915 8.65026V4.15362C8.24915 3.53219 8.3364 2.96793 8.51091 2.46085C8.6907 1.94879 8.9498 1.5138 9.28823 1.15585C9.62666 0.792941 10.0391 0.517027 10.5256 0.328113C11.0174 0.1392 11.5726 0.0447427 12.1913 0.0447427C12.7994 0.0447427 13.3467 0.134228 13.8332 0.313199C14.325 0.49217 14.7427 0.758141 15.0864 1.11111C15.8003 1.85185 16.1572 2.90579 16.1572 4.27293V8.65026C16.1572 8.8342 16.1202 9.0082 16.0462 9.17226C15.9722 9.33632 15.869 9.48049 15.7368 9.60477C15.6047 9.72906 15.4487 9.826 15.2689 9.8956C15.0891 9.9652 14.904 10 14.7136 10C14.5127 10 14.3223 9.9652 14.1425 9.8956C13.9628 9.826 13.8068 9.72906 13.6746 9.60477C13.5424 9.48049 13.4366 9.33632 13.3573 9.17226C13.2833 9.0082 13.2462 8.8342 13.2462 8.65026V7.75541H11.1522V8.65026C11.1522 8.8342 11.1152 9.0082 11.0412 9.17226C10.9671 9.33632 10.864 9.48049 10.7318 9.60477C10.5996 9.72906 10.4436 9.826 10.2639 9.8956C10.0894 9.9652 9.90163 10 9.70069 10ZM13.2462 5.04101V4.25056C13.2462 3.72359 13.1722 3.34328 13.0241 3.10962C12.8814 2.87596 12.6249 2.75914 12.2548 2.75914C12.0432 2.75914 11.8714 2.78151 11.7392 2.82625C11.607 2.86602 11.4986 2.94059 11.414 3.04996C11.2395 3.27865 11.1522 3.7037 11.1522 4.32513V5.04101H13.2462Z" fill="#F63235"/>
<path d="M19.33 9.8956C19.0815 9.8956 18.8541 9.8608 18.6478 9.7912C18.4469 9.7216 18.275 9.62466 18.1323 9.50037C17.9948 9.37609 17.889 9.22943 17.815 9.0604C17.741 8.8864 17.704 8.69749 17.704 8.49366C17.704 8.08601 17.8441 7.78026 18.1243 7.57644C18.4046 7.37261 18.8065 7.27069 19.33 7.27069H21.9396C21.9925 7.27069 22.0506 7.26075 22.1141 7.24086C22.1775 7.22098 22.2357 7.19115 22.2886 7.15138C22.4208 7.05195 22.4869 6.92767 22.4869 6.77852C22.4869 6.56475 22.3996 6.4181 22.2251 6.33855C22.1405 6.30375 22.0797 6.28387 22.0427 6.2789C21.9845 6.26895 21.9554 6.26398 21.9554 6.26398H20.7101C20.2765 6.25404 19.8667 6.17201 19.4807 6.0179C19.0947 5.86378 18.7563 5.65498 18.4654 5.3915C18.1746 5.12304 17.9472 4.81481 17.7833 4.46682C17.6246 4.11385 17.5453 3.73353 17.5453 3.32588C17.5453 2.90331 17.6352 2.49814 17.815 2.11037C17.9948 1.71762 18.2433 1.37211 18.5606 1.07383C18.8832 0.770569 19.2507 0.536913 19.6631 0.372856C20.0809 0.203828 20.5198 0.119314 20.9798 0.119314H23.2245C23.7428 0.119314 24.1473 0.231171 24.4381 0.454884C24.729 0.678598 24.8744 0.994283 24.8744 1.40194C24.8744 1.84937 24.729 2.18991 24.4381 2.42356C24.1473 2.65722 23.7428 2.77405 23.2245 2.77405H20.7895C20.652 2.77405 20.5409 2.81382 20.4563 2.89336C20.3717 2.96793 20.3294 3.06488 20.3294 3.18419C20.3294 3.30848 20.3611 3.41536 20.4246 3.50485C20.4933 3.58936 20.5859 3.63162 20.7022 3.63162H21.8999C22.3653 3.63162 22.8042 3.70619 23.2166 3.85533C23.6344 3.9995 23.9992 4.20582 24.3112 4.47427C24.6285 4.74273 24.8717 5.0609 25.0409 5.42878C25.2154 5.79667 25.3027 6.19438 25.3027 6.62192C25.3027 7.04947 25.2154 7.46209 25.0409 7.85981C24.8664 8.25752 24.6232 8.608 24.3112 8.91126C23.9992 9.21949 23.6344 9.4606 23.2166 9.6346C22.8042 9.8086 22.3653 9.8956 21.8999 9.8956H19.33Z" fill="#F63235"/>
<path d="M29.9746 9.8956C29.7842 9.8956 29.5991 9.8608 29.4193 9.7912C29.2448 9.7216 29.0941 9.62714 28.9672 9.50783C28.835 9.38852 28.7319 9.24683 28.6579 9.08277C28.5838 8.91872 28.5468 8.74223 28.5468 8.55332V6.70395C28.2031 6.59955 27.8806 6.45041 27.5791 6.25653C27.2777 6.06264 27.008 5.83395 26.7701 5.57047C26.5374 5.31196 26.3471 5.0261 26.199 4.7129C26.0509 4.39473 25.9558 4.06165 25.9135 3.71365C25.8976 3.64405 25.8897 3.57196 25.8897 3.49739V1.41685C25.8897 1.24285 25.9267 1.07631 26.0007 0.917226C26.08 0.758141 26.1858 0.616455 26.318 0.49217C26.4449 0.372856 26.5956 0.280885 26.7701 0.216257C26.9499 0.151628 27.135 0.119314 27.3253 0.119314C27.5157 0.119314 27.6928 0.151628 27.8568 0.216257C28.026 0.280885 28.1767 0.372856 28.3089 0.49217C28.4358 0.611484 28.5336 0.753169 28.6024 0.917226C28.6711 1.07631 28.7055 1.24285 28.7055 1.41685V3.52722C28.7108 3.64156 28.7425 3.75093 28.8007 3.85533C28.8588 3.95476 28.9381 4.04176 29.0386 4.11633C29.1338 4.18593 29.2396 4.24062 29.3559 4.28039C29.4722 4.32016 29.5886 4.34004 29.7049 4.34004C29.9587 4.34004 30.1755 4.26299 30.3553 4.10887C30.5457 3.95476 30.6435 3.76336 30.6488 3.53468V1.41685C30.6488 1.24285 30.6858 1.07631 30.7598 0.917226C30.8339 0.753169 30.937 0.611484 31.0692 0.49217C31.1961 0.372856 31.3468 0.280885 31.5213 0.216257C31.7011 0.151628 31.8862 0.119314 32.0765 0.119314C32.2669 0.119314 32.4467 0.151628 32.6159 0.216257C32.7904 0.280885 32.9411 0.372856 33.068 0.49217C33.1949 0.611484 33.2927 0.753169 33.3615 0.917226C33.4302 1.07631 33.4646 1.24285 33.4646 1.41685V3.32588C33.4646 4.02685 33.2742 4.66567 32.8935 5.24236C32.5181 5.8091 32.0131 6.23912 31.3785 6.53244V8.55332C31.3785 8.73726 31.3415 8.91126 31.2675 9.07532C31.1987 9.23937 31.0983 9.38354 30.9661 9.50783C30.8391 9.62714 30.6884 9.7216 30.5139 9.7912C30.3394 9.8608 30.1596 9.8956 29.9746 9.8956Z" fill="#F63235"/>
<path d="M41.7296 9.97017C41.2484 9.97017 40.7937 9.88566 40.3653 9.71663C39.937 9.5476 39.5616 9.31146 39.239 9.0082C38.9164 8.70495 38.6653 8.35446 38.4855 7.95675C38.3057 7.55406 38.2158 7.12652 38.2158 6.67412V1.34228C38.2158 1.15834 38.2528 0.98434 38.3268 0.820283C38.4062 0.656227 38.5119 0.512056 38.6441 0.38777C38.771 0.268456 38.9217 0.174 39.0962 0.1044C39.276 0.0347999 39.4664 0 39.6673 0C39.8683 0 40.056 0.0347999 40.2305 0.1044C40.4103 0.169028 40.5663 0.263485 40.6985 0.38777C40.8307 0.512056 40.9338 0.656227 41.0078 0.820283C41.0818 0.98434 41.1189 1.15834 41.1189 1.34228V6.5399C41.1189 6.69401 41.1823 6.83569 41.3092 6.96495C41.4256 7.08427 41.571 7.14392 41.7455 7.14392C41.9306 7.14392 42.0786 7.09421 42.1897 6.99478C42.3007 6.89038 42.3615 6.75367 42.3721 6.58464V1.36465C42.3721 1.17574 42.4091 0.999254 42.4831 0.835198C42.5572 0.66617 42.6603 0.519513 42.7925 0.395227C42.93 0.270942 43.086 0.174 43.2605 0.1044C43.4403 0.0347999 43.628 0 43.8236 0C44.0193 0 44.2044 0.0347999 44.3789 0.1044C44.5534 0.174 44.7094 0.270942 44.8468 0.395227C44.979 0.519513 45.0822 0.66617 45.1562 0.835198C45.2302 0.999254 45.2672 1.17574 45.2672 1.36465V6.5399C45.2672 6.71887 45.3201 6.86552 45.4259 6.97987C45.5316 7.08924 45.6744 7.14392 45.8542 7.14392C46.0287 7.14392 46.1768 7.08924 46.2984 6.97987C46.4253 6.87049 46.494 6.73378 46.5046 6.56972V1.34228C46.5046 1.15834 46.5416 0.98434 46.6157 0.820283C46.695 0.656227 46.8007 0.512056 46.9329 0.38777C47.0651 0.263485 47.2185 0.169028 47.393 0.1044C47.5728 0.0347999 47.7631 0 47.9641 0C48.1544 0 48.3395 0.0347999 48.5193 0.1044C48.6991 0.174 48.8551 0.268456 48.9873 0.38777C49.1195 0.512056 49.2226 0.656227 49.2966 0.820283C49.3759 0.98434 49.4156 1.15834 49.4156 1.34228V6.67412C49.4156 7.12155 49.3231 7.54661 49.138 7.94929C48.9582 8.35198 48.707 8.70495 48.3845 9.0082C48.0619 9.31146 47.6838 9.5476 47.2502 9.71663C46.8219 9.88566 46.3645 9.97017 45.878 9.97017C45.4973 9.97017 45.1297 9.91549 44.7755 9.80611C44.4265 9.69177 44.1065 9.52772 43.8157 9.31394C43.1917 9.75143 42.4964 9.97017 41.7296 9.97017Z" fill="#F63235"/>
<path d="M52.8025 10C52.6016 10 52.4112 9.9652 52.2314 9.8956C52.0569 9.826 51.9062 9.72906 51.7793 9.60477C51.6471 9.48049 51.5414 9.33632 51.462 9.17226C51.388 9.0082 51.351 8.8342 51.351 8.65026V4.15362C51.351 3.53219 51.4382 2.96793 51.6127 2.46085C51.7925 1.94879 52.0516 1.5138 52.3901 1.15585C52.7285 0.792941 53.1409 0.517027 53.6274 0.328113C54.1192 0.1392 54.6744 0.0447427 55.2931 0.0447427C55.9012 0.0447427 56.4485 0.134228 56.935 0.313199C57.4268 0.49217 57.8446 0.758141 58.1883 1.11111C58.9021 1.85185 59.2591 2.90579 59.2591 4.27293V8.65026C59.2591 8.8342 59.2221 9.0082 59.148 9.17226C59.074 9.33632 58.9709 9.48049 58.8387 9.60477C58.7065 9.72906 58.5505 9.826 58.3707 9.8956C58.1909 9.9652 58.0058 10 57.8155 10C57.6145 10 57.4242 9.9652 57.2444 9.8956C57.0646 9.826 56.9086 9.72906 56.7764 9.60477C56.6442 9.48049 56.5384 9.33632 56.4591 9.17226C56.3851 9.0082 56.3481 8.8342 56.3481 8.65026V7.75541H54.2541V8.65026C54.2541 8.8342 54.217 9.0082 54.143 9.17226C54.069 9.33632 53.9659 9.48049 53.8337 9.60477C53.7015 9.72906 53.5455 9.826 53.3657 9.8956C53.1912 9.9652 53.0035 10 52.8025 10ZM56.3481 5.04101V4.25056C56.3481 3.72359 56.274 3.34328 56.126 3.10962C55.9832 2.87596 55.7267 2.75914 55.3566 2.75914C55.1451 2.75914 54.9732 2.78151 54.841 2.82625C54.7088 2.86602 54.6004 2.94059 54.5158 3.04996C54.3413 3.27865 54.2541 3.7037 54.2541 4.32513V5.04101H56.3481Z" fill="#F63235"/>
<path d="M64.51 9.8956C64.3196 9.8956 64.1345 9.8608 63.9547 9.7912C63.7802 9.7216 63.6295 9.62714 63.5026 9.50783C63.3704 9.38852 63.2673 9.24683 63.1933 9.08277C63.1193 8.91872 63.0822 8.74223 63.0822 8.55332V6.70395C62.7385 6.59955 62.416 6.45041 62.1145 6.25653C61.8131 6.06264 61.5435 5.83395 61.3055 5.57047C61.0728 5.31196 60.8825 5.0261 60.7344 4.7129C60.5863 4.39473 60.4912 4.06165 60.4489 3.71365C60.433 3.64405 60.4251 3.57196 60.4251 3.49739V1.41685C60.4251 1.24285 60.4621 1.07631 60.5361 0.917226C60.6154 0.758141 60.7212 0.616455 60.8534 0.49217C60.9803 0.372856 61.131 0.280885 61.3055 0.216257C61.4853 0.151628 61.6704 0.119314 61.8607 0.119314C62.0511 0.119314 62.2282 0.151628 62.3922 0.216257C62.5614 0.280885 62.7121 0.372856 62.8443 0.49217C62.9712 0.611484 63.069 0.753169 63.1378 0.917226C63.2065 1.07631 63.2409 1.24285 63.2409 1.41685V3.52722C63.2462 3.64156 63.2779 3.75093 63.3361 3.85533C63.3942 3.95476 63.4735 4.04176 63.574 4.11633C63.6692 4.18593 63.775 4.24062 63.8913 4.28039C64.0076 4.32016 64.124 4.34004 64.2403 4.34004C64.4941 4.34004 64.7109 4.26299 64.8907 4.10887C65.0811 3.95476 65.1789 3.76336 65.1842 3.53468V1.41685C65.1842 1.24285 65.2212 1.07631 65.2952 0.917226C65.3693 0.753169 65.4724 0.611484 65.6046 0.49217C65.7315 0.372856 65.8822 0.280885 66.0567 0.216257C66.2365 0.151628 66.4216 0.119314 66.6119 0.119314C66.8023 0.119314 66.9821 0.151628 67.1513 0.216257C67.3258 0.280885 67.4765 0.372856 67.6034 0.49217C67.7303 0.611484 67.8281 0.753169 67.8969 0.917226C67.9656 1.07631 68 1.24285 68 1.41685V3.32588C68 4.02685 67.8096 4.66567 67.4289 5.24236C67.0535 5.8091 66.5485 6.23912 65.9139 6.53244V8.55332C65.9139 8.73726 65.8769 8.91126 65.8029 9.07532C65.7341 9.23937 65.6337 9.38354 65.5015 9.50783C65.3745 9.62714 65.2238 9.7216 65.0493 9.7912C64.8748 9.8608 64.6951 9.8956 64.51 9.8956Z" fill="#F63235"/>
<path d="M1.43418 24.8809C1.33857 24.8809 1.24296 24.8734 1.14735 24.8585L1.09157 24.8436C0.778177 24.7841 0.520555 24.6327 0.318707 24.3894C0.106236 24.1412 0 23.8657 0 23.5629C0 23.4835 0.00796768 23.4066 0.023903 23.3321V16.2882C0.023903 16.1144 0.0610855 15.9481 0.135451 15.7893C0.209816 15.6304 0.31074 15.4914 0.438222 15.3723C0.565705 15.2532 0.714435 15.1613 0.884413 15.0968C1.0597 15.0323 1.24296 15 1.43418 15C1.62541 15 1.80866 15.0323 1.98395 15.0968C2.15924 15.1613 2.31063 15.2532 2.43811 15.3723C2.56559 15.4914 2.66652 15.6304 2.74088 15.7893C2.81525 15.9481 2.85243 16.1144 2.85243 16.2882V22.245L5.65705 22.2599C5.84828 22.2599 6.02888 22.2946 6.19886 22.3641C6.36883 22.4286 6.52022 22.523 6.65301 22.6471C6.7805 22.7662 6.87876 22.9077 6.94782 23.0715C7.02218 23.2353 7.05936 23.4066 7.05936 23.5853C7.05936 23.9625 6.92391 24.2728 6.65301 24.516C6.52553 24.6302 6.37414 24.7195 6.19886 24.7841C6.02888 24.8486 5.84828 24.8809 5.65705 24.8809H1.43418Z" fill="#454545"/>
<path d="M12.0153 24.9553C11.4788 24.9553 10.9662 24.866 10.4775 24.6873C9.98882 24.5036 9.55856 24.2405 9.18674 23.898C8.79897 23.5455 8.4962 23.1236 8.27842 22.6322C8.06595 22.1407 7.95971 21.5922 7.95971 20.9866V19.006C7.95971 18.4003 8.06595 17.8493 8.27842 17.3529C8.4962 16.8565 8.79897 16.4321 9.18674 16.0797C9.55856 15.7421 9.98882 15.484 10.4775 15.3053C10.9662 15.1216 11.4788 15.0298 12.0153 15.0298C12.5464 15.0298 13.0564 15.1216 13.5451 15.3053C14.0391 15.484 14.4693 15.7421 14.8358 16.0797C15.2183 16.4371 15.5157 16.864 15.7282 17.3604C15.946 17.8518 16.0549 18.4003 16.0549 19.006L13.2024 18.9836C13.2024 18.4723 13.0643 18.1124 12.7881 17.9039C12.6022 17.7699 12.3446 17.7029 12.0153 17.7029C11.6806 17.7029 11.4203 17.7699 11.2344 17.9039C10.9529 18.1124 10.8121 18.4723 10.8121 18.9836V21.0089C10.8121 21.5153 10.9529 21.8702 11.2344 22.0737C11.4203 22.2127 11.6806 22.2822 12.0153 22.2822C12.3446 22.2822 12.6022 22.2127 12.7881 22.0737C13.0643 21.8752 13.2024 21.5202 13.2024 21.0089V19.006H16.0549V20.9866C16.0549 21.5922 15.946 22.1407 15.7282 22.6322C15.5157 23.1236 15.2183 23.5455 14.8358 23.898C14.4693 24.2405 14.0391 24.5036 13.5451 24.6873C13.0564 24.866 12.5464 24.9553 12.0153 24.9553Z" fill="#454545"/>
<path d="M22.0944 24.9553C21.5526 24.9553 21.0373 24.8685 20.5486 24.6947C20.0653 24.521 19.6403 24.2703 19.2738 23.9427C18.8914 23.6051 18.5939 23.1931 18.3814 22.7066C18.169 22.2202 18.0627 21.6741 18.0627 21.0685V18.9241C18.0627 18.3184 18.1716 17.7724 18.3894 17.2859C18.6072 16.7945 18.9126 16.3775 19.3057 16.035C19.6828 15.7074 20.1157 15.4592 20.6044 15.2904C21.0931 15.1167 21.6083 15.0298 22.1502 15.0298C22.9629 15.0298 23.6587 15.1961 24.2377 15.5287C24.6573 15.7719 25.0637 16.1268 25.4567 16.5934C25.6533 16.8665 25.7515 17.1544 25.7515 17.4572C25.7515 17.6309 25.7144 17.7972 25.64 17.9561C25.5709 18.1149 25.4727 18.2539 25.3452 18.373C25.2071 18.4971 25.0477 18.5939 24.8671 18.6634C24.6865 18.7329 24.4927 18.7677 24.2855 18.7677C24.073 18.7677 23.8818 18.7305 23.7118 18.656C23.5418 18.5766 23.4037 18.4599 23.2975 18.306C23.2019 18.177 23.1435 18.0901 23.1222 18.0454C23.0744 17.966 23.016 17.9039 22.9469 17.8593C22.8779 17.8096 22.7849 17.7699 22.6681 17.7401C22.5353 17.7153 22.3626 17.7029 22.1502 17.7029C21.9749 17.7029 21.8235 17.7128 21.696 17.7327C21.5738 17.7476 21.4596 17.7873 21.3534 17.8518C21.0612 18.0355 20.9152 18.3855 20.9152 18.9017V21.0908C20.9152 21.6121 21.0533 21.9595 21.3295 22.1333C21.4357 22.1978 21.5473 22.24 21.6641 22.2599C21.781 22.2748 21.9244 22.2822 22.0944 22.2822C22.5034 22.2822 22.8115 22.2202 23.0186 22.0961C23.1089 22.0414 23.1886 21.9769 23.2577 21.9025C23.3267 21.823 23.4011 21.7262 23.4808 21.6121V21.5153H23.409C23.2178 21.5153 23.0372 21.4805 22.8672 21.411C22.6973 21.3415 22.5485 21.2447 22.4211 21.1206C22.2936 21.0015 22.1926 20.86 22.1183 20.6962C22.0492 20.5324 22.0147 20.3611 22.0147 20.1824C22.0147 20.0037 22.0492 19.8349 22.1183 19.6761C22.1926 19.5173 22.2936 19.3783 22.4211 19.2591C22.5485 19.135 22.6973 19.0382 22.8672 18.9687C23.0372 18.8992 23.2178 18.8645 23.409 18.8645L24.6918 18.8794C24.8778 18.8794 25.0584 18.9141 25.2336 18.9836C25.4089 19.0531 25.563 19.1474 25.6958 19.2666C25.8286 19.3907 25.9295 19.5321 25.9985 19.691C26.0729 19.8449 26.1101 20.0087 26.1101 20.1824V21.478C26.1101 21.6766 26.1048 21.833 26.0942 21.9471C26.0782 22.1407 26.049 22.2822 26.0065 22.3716C25.6612 23.2005 25.1327 23.8459 24.4209 24.3075C23.7463 24.7394 22.9708 24.9553 22.0944 24.9553Z" fill="#454545"/>
<path d="M29.337 24.9926C29.1458 24.9926 28.9625 24.9578 28.7872 24.8883C28.6173 24.8238 28.4685 24.7319 28.341 24.6128C28.2136 24.4937 28.1126 24.3547 28.0383 24.1958C27.9639 24.037 27.9267 23.8682 27.9267 23.6895V16.3031C27.9267 16.1243 27.9612 15.9556 28.0303 15.7967C28.1047 15.6379 28.2082 15.4964 28.341 15.3723C28.4685 15.2532 28.6173 15.1613 28.7872 15.0968C28.9625 15.0323 29.1458 15 29.337 15C29.5282 15 29.7115 15.0323 29.8868 15.0968C30.0621 15.1613 30.2134 15.2532 30.3409 15.3723C30.4737 15.4964 30.5746 15.6379 30.6437 15.7967C30.7181 15.9556 30.7552 16.1243 30.7552 16.3031V23.6895C30.7552 23.8682 30.7181 24.037 30.6437 24.1958C30.5693 24.3547 30.4684 24.4937 30.3409 24.6128C30.2134 24.7319 30.0621 24.8238 29.8868 24.8883C29.7115 24.9578 29.5282 24.9926 29.337 24.9926Z" fill="#454545"/>
<path d="M33.783 24.8809C33.5333 24.8809 33.3049 24.8461 33.0977 24.7766C32.8959 24.7071 32.7233 24.6103 32.5798 24.4862C32.4417 24.3621 32.3355 24.2157 32.2611 24.0469C32.1868 23.8732 32.1496 23.6845 32.1496 23.481C32.1496 23.074 32.2904 22.7687 32.5719 22.5652C32.8534 22.3616 33.2571 22.2599 33.783 22.2599H36.4043C36.4575 22.2599 36.5159 22.2499 36.5796 22.2301C36.6434 22.2102 36.7018 22.1804 36.7549 22.1407C36.8877 22.0414 36.9541 21.9173 36.9541 21.7684C36.9541 21.555 36.8665 21.4085 36.6912 21.3291C36.6062 21.2944 36.5451 21.2745 36.5079 21.2695C36.4495 21.2596 36.4203 21.2547 36.4203 21.2547H35.1693C34.7338 21.2447 34.3221 21.1628 33.9344 21.0089C33.5466 20.8551 33.2066 20.6466 32.9145 20.3835C32.6223 20.1154 32.3939 19.8076 32.2293 19.4602C32.0699 19.1077 31.9902 18.728 31.9902 18.3209C31.9902 17.899 32.0805 17.4944 32.2611 17.1072C32.4417 16.7151 32.6914 16.3701 33.0101 16.0722C33.3341 15.7694 33.7033 15.5361 34.1176 15.3723C34.5372 15.2035 34.9781 15.1191 35.4402 15.1191H37.6951C38.2157 15.1191 38.622 15.2308 38.9142 15.4542C39.2063 15.6776 39.3524 15.9928 39.3524 16.3999C39.3524 16.8466 39.2063 17.1866 38.9142 17.42C38.622 17.6533 38.2157 17.7699 37.6951 17.7699H35.249C35.1109 17.7699 34.9994 17.8096 34.9144 17.8891C34.8294 17.9635 34.7869 18.0603 34.7869 18.1794C34.7869 18.3035 34.8188 18.4103 34.8825 18.4996C34.9516 18.584 35.0445 18.6262 35.1614 18.6262H36.3645C36.8319 18.6262 37.2728 18.7007 37.6871 18.8496C38.1068 18.9935 38.4733 19.1996 38.7867 19.4676C39.1054 19.7357 39.3497 20.0534 39.5197 20.4207C39.695 20.788 39.7826 21.1852 39.7826 21.6121C39.7826 22.039 39.695 22.451 39.5197 22.8481C39.3444 23.2452 39.1001 23.5952 38.7867 23.898C38.4733 24.2058 38.1068 24.4465 37.6871 24.6203C37.2728 24.794 36.8319 24.8809 36.3645 24.8809H33.783Z" fill="#454545"/>
<path d="M44.5393 25C44.3534 25 44.1781 24.9677 44.0135 24.9032C43.8488 24.8387 43.7054 24.7468 43.5832 24.6277C43.461 24.5086 43.3654 24.3696 43.2964 24.2107C43.2273 24.0519 43.1928 23.8831 43.1928 23.7044V17.7476H41.6311C41.4399 17.7476 41.2566 17.7153 41.0814 17.6508C40.9114 17.5813 40.7627 17.487 40.6352 17.3678C40.5077 17.2487 40.4068 17.1072 40.3324 16.9434C40.2633 16.7796 40.2288 16.6083 40.2288 16.4296C40.2288 16.2509 40.2633 16.0822 40.3324 15.9233C40.4068 15.7645 40.5077 15.6255 40.6352 15.5063C40.768 15.3822 40.9193 15.2879 41.0893 15.2234C41.2593 15.1539 41.4399 15.1191 41.6311 15.1191H47.4157C47.6016 15.1191 47.7822 15.1539 47.9575 15.2234C48.1328 15.2929 48.2841 15.3872 48.4116 15.5063C48.5444 15.6304 48.6453 15.7744 48.7144 15.9382C48.7888 16.102 48.8259 16.2733 48.8259 16.452C48.8259 16.6307 48.7888 16.7995 48.7144 16.9583C48.6453 17.1122 48.5444 17.2487 48.4116 17.3678C48.2841 17.487 48.1328 17.5813 47.9575 17.6508C47.7875 17.7153 47.6069 17.7476 47.4157 17.7476H45.9655V23.7044C45.9655 23.8831 45.9284 24.0519 45.854 24.2107C45.7796 24.3696 45.6761 24.5086 45.5433 24.6277C45.4105 24.7468 45.2564 24.8387 45.0811 24.9032C44.9058 24.9677 44.7252 25 44.5393 25Z" fill="#454545"/>
<path d="M51.4712 24.9926C51.28 24.9926 51.0967 24.9578 50.9214 24.8883C50.7515 24.8238 50.6027 24.7319 50.4753 24.6128C50.3478 24.4937 50.2468 24.3547 50.1725 24.1958C50.0981 24.037 50.0609 23.8682 50.0609 23.6895V16.3031C50.0609 16.1243 50.0955 15.9556 50.1645 15.7967C50.2389 15.6379 50.3425 15.4964 50.4753 15.3723C50.6027 15.2532 50.7515 15.1613 50.9214 15.0968C51.0967 15.0323 51.28 15 51.4712 15C51.6624 15 51.8457 15.0323 52.021 15.0968C52.1963 15.1613 52.3477 15.2532 52.4751 15.3723C52.6079 15.4964 52.7089 15.6379 52.7779 15.7967C52.8523 15.9556 52.8895 16.1243 52.8895 16.3031V23.6895C52.8895 23.8682 52.8523 24.037 52.7779 24.1958C52.7036 24.3547 52.6026 24.4937 52.4751 24.6128C52.3477 24.7319 52.1963 24.8238 52.021 24.8883C51.8457 24.9578 51.6624 24.9926 51.4712 24.9926Z" fill="#454545"/>
<path d="M58.8652 24.9553C58.3234 24.9553 57.8108 24.8685 57.3275 24.6947C56.8441 24.521 56.4191 24.2703 56.0526 23.9427C55.6702 23.6051 55.3727 23.1931 55.1603 22.7066C54.9478 22.2202 54.8415 21.6741 54.8415 21.0685V18.9241C54.8415 18.3184 54.9478 17.7724 55.1603 17.2859C55.3727 16.7945 55.6702 16.3775 56.0526 16.035C56.4191 15.7074 56.8441 15.4592 57.3275 15.2904C57.8108 15.1167 58.3234 15.0298 58.8652 15.0298C59.6779 15.0298 60.3738 15.1961 60.9528 15.5287C61.3724 15.7719 61.7787 16.1268 62.1718 16.5934C62.3737 16.8714 62.4746 17.1643 62.4746 17.4721C62.4746 17.6458 62.4374 17.8121 62.363 17.971C62.2887 18.1248 62.1851 18.2614 62.0523 18.3805C61.9195 18.4996 61.7601 18.5939 61.5742 18.6634C61.3936 18.7329 61.2024 18.7677 61.0006 18.7677C60.7934 18.7677 60.6022 18.7305 60.4269 18.656C60.2569 18.5766 60.1215 18.4599 60.0205 18.306C59.9249 18.177 59.8665 18.0901 59.8452 18.0454C59.7974 17.966 59.7364 17.9039 59.662 17.8593C59.5929 17.8096 59.5 17.7699 59.3831 17.7401C59.2503 17.7153 59.0777 17.7029 58.8652 17.7029C58.6899 17.7029 58.5439 17.7128 58.427 17.7327C58.3101 17.7476 58.2013 17.7873 58.1003 17.8518C57.8294 18.0355 57.694 18.3855 57.694 18.9017V21.0908C57.694 21.6121 57.8294 21.9595 58.1003 22.1333C58.2013 22.1978 58.3101 22.24 58.427 22.2599C58.5439 22.2748 58.6899 22.2822 58.8652 22.2822C59.0777 22.2822 59.245 22.2698 59.3672 22.245C59.4947 22.2202 59.5956 22.1804 59.67 22.1258C59.739 22.0762 59.7974 22.0141 59.8452 21.9397C59.9249 21.8106 60.0073 21.6965 60.0922 21.5972C60.1825 21.4929 60.2994 21.4085 60.4428 21.344C60.6128 21.2695 60.7961 21.2323 60.9926 21.2323C61.1998 21.2323 61.3936 21.2671 61.5742 21.3366C61.7548 21.4011 61.9115 21.4929 62.0443 21.6121C62.1771 21.7362 62.2807 21.8776 62.3551 22.0365C62.4347 22.1904 62.4746 22.3542 62.4746 22.5279C62.4746 22.8456 62.3737 23.136 62.1718 23.3991C61.7787 23.8707 61.3724 24.2231 60.9528 24.4564C60.3738 24.789 59.6779 24.9553 58.8652 24.9553Z" fill="#454545"/>
<path d="M65.0003 24.8809C64.7507 24.8809 64.5223 24.8461 64.3151 24.7766C64.1133 24.7071 63.9406 24.6103 63.7972 24.4862C63.6591 24.3621 63.5529 24.2157 63.4785 24.0469C63.4041 23.8732 63.367 23.6845 63.367 23.481C63.367 23.074 63.5077 22.7687 63.7892 22.5652C64.0708 22.3616 64.4745 22.2599 65.0003 22.2599H67.6217C67.6748 22.2599 67.7333 22.2499 67.797 22.2301C67.8607 22.2102 67.9192 22.1804 67.9723 22.1407C68.1051 22.0414 68.1715 21.9173 68.1715 21.7684C68.1715 21.555 68.0838 21.4085 67.9085 21.3291C67.8236 21.2944 67.7625 21.2745 67.7253 21.2695C67.6669 21.2596 67.6376 21.2547 67.6376 21.2547H66.3867C65.9511 21.2447 65.5395 21.1628 65.1517 21.0089C64.764 20.8551 64.424 20.6466 64.1319 20.3835C63.8397 20.1154 63.6113 19.8076 63.4466 19.4602C63.2873 19.1077 63.2076 18.728 63.2076 18.3209C63.2076 17.899 63.2979 17.4944 63.4785 17.1072C63.6591 16.7151 63.9088 16.3701 64.2275 16.0722C64.5515 15.7694 64.9207 15.5361 65.335 15.3723C65.7546 15.2035 66.1955 15.1191 66.6576 15.1191H68.9125C69.433 15.1191 69.8394 15.2308 70.1315 15.4542C70.4237 15.6776 70.5697 15.9928 70.5697 16.3999C70.5697 16.8466 70.4237 17.1866 70.1315 17.42C69.8394 17.6533 69.433 17.7699 68.9125 17.7699H66.4664C66.3283 17.7699 66.2167 17.8096 66.1318 17.8891C66.0468 17.9635 66.0043 18.0603 66.0043 18.1794C66.0043 18.3035 66.0361 18.4103 66.0999 18.4996C66.1689 18.584 66.2619 18.6262 66.3787 18.6262H67.5819C68.0493 18.6262 68.4902 18.7007 68.9045 18.8496C69.3241 18.9935 69.6906 19.1996 70.004 19.4676C70.3227 19.7357 70.5671 20.0534 70.7371 20.4207C70.9124 20.788 71 21.1852 71 21.6121C71 22.039 70.9124 22.451 70.7371 22.8481C70.5618 23.2452 70.3174 23.5952 70.004 23.898C69.6906 24.2058 69.3241 24.4465 68.9045 24.6203C68.4902 24.794 68.0493 24.8809 67.5819 24.8809H65.0003Z" fill="#454545"/>
</svg>
