<svg width="178" height="13" viewBox="0 0 178 13" fill="none" xmlns="http://www.w3.org/2000/svg">
<path d="M1.58778 12.8643C1.14888 12.8255 0.774525 12.651 0.464715 12.3408C0.154905 12.0306 0 11.646 0 11.1872V1.88069C0 1.64802 0.0419534 1.42829 0.12586 1.22148C0.216221 1.0082 0.338855 0.820781 0.493759 0.65921C0.816478 0.323142 1.21988 0.155108 1.70395 0.155108H6.84486C7.07722 0.155108 7.29667 0.200348 7.50321 0.290828C7.70975 0.374845 7.8937 0.497639 8.05506 0.65921C8.20996 0.820781 8.32937 1.0082 8.41327 1.22148C8.49718 1.43475 8.53913 1.65449 8.53913 1.88069C8.53913 2.11335 8.49718 2.33632 8.41327 2.54959C8.32937 2.76286 8.20996 2.94705 8.05506 3.10216C7.8937 3.26373 7.70975 3.38976 7.50321 3.48024C7.29667 3.56426 7.07722 3.60626 6.84486 3.60626H3.43695V4.64355H6.09938C6.33174 4.64355 6.55119 4.68556 6.75773 4.76957C6.97072 4.85359 7.15467 4.97315 7.30958 5.12826C7.46448 5.28337 7.58711 5.46756 7.67748 5.68084C7.76784 5.88765 7.81302 6.10738 7.81302 6.34004C7.81302 6.57271 7.76784 6.78921 7.67748 6.98956C7.59357 7.18991 7.47094 7.3644 7.30958 7.51305C7.14822 7.6617 6.96427 7.77803 6.75773 7.86204C6.55119 7.94606 6.33174 7.98807 6.09938 7.98807H3.43695V9.43251H6.84486C7.07722 9.43251 7.29667 9.47775 7.50321 9.56823C7.70975 9.65225 7.8937 9.77504 8.05506 9.93661C8.20996 10.0982 8.32937 10.2888 8.41327 10.5086C8.49718 10.7218 8.53913 10.9448 8.53913 11.1775C8.53913 11.6622 8.37778 12.0661 8.05506 12.3893C7.90015 12.5379 7.7162 12.6542 7.50321 12.7383C7.29667 12.8223 7.07722 12.8643 6.84486 12.8643H1.58778Z" fill="#F63235"/>
<path d="M11.8405 13C11.5953 13 11.3629 12.9548 11.1435 12.8643C10.9305 12.7738 10.7465 12.6478 10.5916 12.4862C10.4303 12.3246 10.3012 12.1372 10.2044 11.9239C10.114 11.7107 10.0688 11.4845 10.0688 11.2453V5.3997C10.0688 4.59185 10.1753 3.85831 10.3883 3.19911C10.6078 2.53343 10.924 1.96793 11.3371 1.50261C11.7502 1.03082 12.2536 0.672135 12.8474 0.426547C13.4477 0.180959 14.1254 0.0581655 14.8806 0.0581655C15.6228 0.0581655 16.2908 0.174497 16.8846 0.407159C17.4849 0.639821 17.9948 0.985583 18.4143 1.44444C19.2857 2.40741 19.7213 3.77753 19.7213 5.55481V11.2453C19.7213 11.4845 19.6762 11.7107 19.5858 11.9239C19.4954 12.1372 19.3696 12.3246 19.2082 12.4862C19.0469 12.6478 18.8564 12.7738 18.637 12.8643C18.4176 12.9548 18.1916 13 17.9593 13C17.714 13 17.4817 12.9548 17.2622 12.8643C17.0428 12.7738 16.8524 12.6478 16.691 12.4862C16.5296 12.3246 16.4006 12.1372 16.3037 11.9239C16.2134 11.7107 16.1682 11.4845 16.1682 11.2453V10.082H13.6123V11.2453C13.6123 11.4845 13.5671 11.7107 13.4767 11.9239C13.3864 12.1372 13.2605 12.3246 13.0991 12.4862C12.9378 12.6478 12.7474 12.7738 12.5279 12.8643C12.3149 12.9548 12.0858 13 11.8405 13ZM16.1682 6.55332V5.52573C16.1682 4.84067 16.0778 4.34626 15.8971 4.04251C15.7229 3.73875 15.4098 3.58688 14.958 3.58688C14.6998 3.58688 14.4901 3.61596 14.3287 3.67412C14.1673 3.72583 14.035 3.82277 13.9318 3.96495C13.7188 4.26224 13.6123 4.81481 13.6123 5.62267V6.55332H16.1682Z" fill="#F63235"/>
<path d="M23.594 12.8643C23.2906 12.8643 23.0131 12.819 22.7613 12.7286C22.5161 12.6381 22.3063 12.5121 22.132 12.3505C21.9642 12.1889 21.8351 11.9983 21.7448 11.7785C21.6544 11.5523 21.6092 11.3067 21.6092 11.0418C21.6092 10.5118 21.7803 10.1143 22.1224 9.84937C22.4644 9.58439 22.955 9.4519 23.594 9.4519H26.7792C26.8437 9.4519 26.9147 9.43898 26.9922 9.41312C27.0696 9.38727 27.1406 9.3485 27.2052 9.29679C27.3665 9.16754 27.4472 9.00597 27.4472 8.81208C27.4472 8.53418 27.3407 8.34352 27.1277 8.24012C27.0245 8.19488 26.9502 8.16903 26.9051 8.16257C26.8341 8.14964 26.7986 8.14318 26.7986 8.14318H25.2785C24.7493 8.13025 24.2491 8.02361 23.7779 7.82327C23.3067 7.62292 22.8937 7.35148 22.5387 7.00895C22.1837 6.65996 21.9061 6.25926 21.7061 5.80686C21.5124 5.348 21.4156 4.85359 21.4156 4.32364C21.4156 3.7743 21.5253 3.24758 21.7448 2.74347C21.9642 2.23291 22.2676 1.78374 22.6548 1.39597C23.0486 1.00174 23.4971 0.697987 24.0006 0.484713C24.5105 0.264976 25.0462 0.155108 25.6077 0.155108H28.3476C28.9801 0.155108 29.4739 0.300522 29.8289 0.59135C30.1839 0.882177 30.3614 1.29257 30.3614 1.82252C30.3614 2.40418 30.1839 2.84688 29.8289 3.15063C29.4739 3.45439 28.9801 3.60626 28.3476 3.60626H25.3754C25.2076 3.60626 25.072 3.65797 24.9687 3.76137C24.8655 3.85831 24.8138 3.98434 24.8138 4.13945C24.8138 4.30102 24.8526 4.43997 24.93 4.5563C25.0139 4.66617 25.1269 4.7211 25.2689 4.7211H26.7308C27.2988 4.7211 27.8345 4.81805 28.3379 5.01193C28.8478 5.19935 29.2932 5.46756 29.674 5.81655C30.0612 6.16555 30.3581 6.57917 30.5647 7.05742C30.7777 7.53567 30.8842 8.0527 30.8842 8.6085C30.8842 9.1643 30.7777 9.70072 30.5647 10.2177C30.3517 10.7348 30.0548 11.1904 29.674 11.5846C29.2932 11.9853 28.8478 12.2988 28.3379 12.525C27.8345 12.7512 27.2988 12.8643 26.7308 12.8643H23.594Z" fill="#F63235"/>
<path d="M36.5866 12.8643C36.3543 12.8643 36.1283 12.819 35.9089 12.7286C35.6959 12.6381 35.512 12.5153 35.3571 12.3602C35.1957 12.2051 35.0698 12.0209 34.9795 11.8076C34.8891 11.5943 34.8439 11.3649 34.8439 11.1193V8.71514C34.4244 8.57942 34.0307 8.38553 33.6628 8.13348C33.2949 7.88143 32.9657 7.58414 32.6753 7.24161C32.3913 6.90554 32.1589 6.53393 31.9782 6.12677C31.7975 5.71315 31.6813 5.28014 31.6297 4.82774C31.6103 4.73726 31.6006 4.64355 31.6006 4.54661V1.84191C31.6006 1.61571 31.6458 1.3992 31.7361 1.19239C31.833 0.985583 31.9621 0.801392 32.1234 0.639821C32.2783 0.484713 32.4623 0.36515 32.6753 0.281133C32.8947 0.197117 33.1206 0.155108 33.353 0.155108C33.5853 0.155108 33.8015 0.197117 34.0016 0.281133C34.2082 0.36515 34.3921 0.484713 34.5535 0.639821C34.7084 0.794929 34.8278 0.97912 34.9117 1.19239C34.9956 1.3992 35.0376 1.61571 35.0376 1.84191V4.58538C35.044 4.73403 35.0827 4.87621 35.1537 5.01193C35.2247 5.14119 35.3216 5.25429 35.4442 5.35123C35.5604 5.44171 35.6895 5.5128 35.8314 5.5645C35.9734 5.61621 36.1154 5.64206 36.2574 5.64206C36.5672 5.64206 36.8319 5.54188 37.0513 5.34154C37.2837 5.14119 37.4031 4.89237 37.4095 4.59508V1.84191C37.4095 1.61571 37.4547 1.3992 37.5451 1.19239C37.6354 0.97912 37.7613 0.794929 37.9227 0.639821C38.0776 0.484713 38.2615 0.36515 38.4745 0.281133C38.694 0.197117 38.9199 0.155108 39.1522 0.155108C39.3846 0.155108 39.604 0.197117 39.8106 0.281133C40.0236 0.36515 40.2075 0.484713 40.3624 0.639821C40.5173 0.794929 40.6367 0.97912 40.7206 1.19239C40.8045 1.3992 40.8465 1.61571 40.8465 1.84191V4.32364C40.8465 5.2349 40.6141 6.06537 40.1494 6.81506C39.6912 7.55183 39.0748 8.11086 38.3002 8.49217V11.1193C38.3002 11.3584 38.2551 11.5846 38.1647 11.7979C38.0808 12.0112 37.9582 12.1986 37.7968 12.3602C37.6419 12.5153 37.458 12.6381 37.245 12.7286C37.032 12.819 36.8125 12.8643 36.5866 12.8643Z" fill="#F63235"/>
<path d="M50.9347 12.9612C50.3473 12.9612 49.7923 12.8514 49.2695 12.6316C48.7466 12.4119 48.2884 12.1049 47.8947 11.7107C47.501 11.3164 47.1944 10.8608 46.9749 10.3438C46.7555 9.82028 46.6457 9.26448 46.6457 8.67636V1.74497C46.6457 1.50584 46.6909 1.27964 46.7813 1.06637C46.8781 0.853095 47.0072 0.665672 47.1686 0.504101C47.3235 0.348993 47.5074 0.226199 47.7204 0.13572C47.9398 0.0452399 48.1722 0 48.4175 0C48.6627 0 48.8919 0.0452399 49.1049 0.13572C49.3243 0.219737 49.5147 0.34253 49.6761 0.504101C49.8374 0.665672 49.9633 0.853095 50.0537 1.06637C50.144 1.27964 50.1892 1.50584 50.1892 1.74497V8.50186C50.1892 8.70221 50.2667 8.8864 50.4216 9.05444C50.5636 9.20955 50.741 9.2871 50.954 9.2871C51.1799 9.2871 51.3607 9.22247 51.4962 9.09321C51.6318 8.95749 51.706 8.77977 51.7189 8.56003V1.77405C51.7189 1.52846 51.7641 1.29903 51.8544 1.08576C51.9448 0.86602 52.0706 0.675367 52.232 0.513796C52.3998 0.352225 52.5902 0.226199 52.8032 0.13572C53.0227 0.0452399 53.2518 0 53.4906 0C53.7294 0 53.9553 0.0452399 54.1683 0.13572C54.3813 0.226199 54.5717 0.352225 54.7395 0.513796C54.9009 0.675367 55.0268 0.86602 55.1171 1.08576C55.2075 1.29903 55.2527 1.52846 55.2527 1.77405V8.50186C55.2527 8.73453 55.3172 8.92518 55.4463 9.07382C55.5754 9.21601 55.7496 9.2871 55.9691 9.2871C56.1821 9.2871 56.3628 9.21601 56.5113 9.07382C56.6662 8.93164 56.7501 8.75391 56.763 8.54064V1.74497C56.763 1.50584 56.8082 1.27964 56.8985 1.06637C56.9953 0.853095 57.1244 0.665672 57.2858 0.504101C57.4471 0.34253 57.6343 0.219737 57.8473 0.13572C58.0668 0.0452399 58.2991 0 58.5444 0C58.7767 0 59.0026 0.0452399 59.2221 0.13572C59.4415 0.226199 59.6319 0.348993 59.7933 0.504101C59.9547 0.665672 60.0805 0.853095 60.1709 1.06637C60.2677 1.27964 60.3161 1.50584 60.3161 1.74497V8.67636C60.3161 9.25802 60.2032 9.81059 59.9773 10.3341C59.7578 10.8576 59.4512 11.3164 59.0575 11.7107C58.6638 12.1049 58.2023 12.4119 57.673 12.6316C57.1502 12.8514 56.5919 12.9612 55.9981 12.9612C55.5334 12.9612 55.0848 12.8901 54.6524 12.7479C54.2264 12.5993 53.8359 12.386 53.4809 12.1081C52.7193 12.6769 51.8706 12.9612 50.9347 12.9612Z" fill="#F63235"/>
<path d="M64.4501 13C64.2049 13 63.9725 12.9548 63.7531 12.8643C63.5401 12.7738 63.3561 12.6478 63.2012 12.4862C63.0399 12.3246 62.9108 12.1372 62.814 11.9239C62.7236 11.7107 62.6784 11.4845 62.6784 11.2453V5.3997C62.6784 4.59185 62.7849 3.85831 62.9979 3.19911C63.2174 2.53343 63.5336 1.96793 63.9467 1.50261C64.3598 1.03082 64.8632 0.672135 65.457 0.426547C66.0573 0.180959 66.735 0.0581655 67.4901 0.0581655C68.2324 0.0581655 68.9004 0.174497 69.4942 0.407159C70.0945 0.639821 70.6044 0.985583 71.0239 1.44444C71.8953 2.40741 72.3309 3.77753 72.3309 5.55481V11.2453C72.3309 11.4845 72.2857 11.7107 72.1954 11.9239C72.105 12.1372 71.9792 12.3246 71.8178 12.4862C71.6564 12.6478 71.466 12.7738 71.2466 12.8643C71.0271 12.9548 70.8012 13 70.5689 13C70.3236 13 70.0913 12.9548 69.8718 12.8643C69.6524 12.7738 69.462 12.6478 69.3006 12.4862C69.1392 12.3246 69.0101 12.1372 68.9133 11.9239C68.823 11.7107 68.7778 11.4845 68.7778 11.2453V10.082H66.2219V11.2453C66.2219 11.4845 66.1767 11.7107 66.0863 11.9239C65.996 12.1372 65.8701 12.3246 65.7087 12.4862C65.5474 12.6478 65.357 12.7738 65.1375 12.8643C64.9245 12.9548 64.6954 13 64.4501 13ZM68.7778 6.55332V5.52573C68.7778 4.84067 68.6874 4.34626 68.5067 4.04251C68.3324 3.73875 68.0194 3.58688 67.5676 3.58688C67.3094 3.58688 67.0997 3.61596 66.9383 3.67412C66.7769 3.72583 66.6446 3.82277 66.5414 3.96495C66.3284 4.26224 66.2219 4.81481 66.2219 5.62267V6.55332H68.7778Z" fill="#F63235"/>
<path d="M78.7401 12.8643C78.5078 12.8643 78.2819 12.819 78.0624 12.7286C77.8494 12.6381 77.6655 12.5153 77.5106 12.3602C77.3492 12.2051 77.2233 12.0209 77.133 11.8076C77.0426 11.5943 76.9974 11.3649 76.9974 11.1193V8.71514C76.5779 8.57942 76.1842 8.38553 75.8163 8.13348C75.4484 7.88143 75.1192 7.58414 74.8288 7.24161C74.5448 6.90554 74.3124 6.53393 74.1317 6.12677C73.951 5.71315 73.8348 5.28014 73.7832 4.82774C73.7638 4.73726 73.7541 4.64355 73.7541 4.54661V1.84191C73.7541 1.61571 73.7993 1.3992 73.8897 1.19239C73.9865 0.985583 74.1156 0.801392 74.2769 0.639821C74.4318 0.484713 74.6158 0.36515 74.8288 0.281133C75.0482 0.197117 75.2741 0.155108 75.5065 0.155108C75.7388 0.155108 75.9551 0.197117 76.1551 0.281133C76.3617 0.36515 76.5456 0.484713 76.707 0.639821C76.8619 0.794929 76.9813 0.97912 77.0652 1.19239C77.1491 1.3992 77.1911 1.61571 77.1911 1.84191V4.58538C77.1975 4.73403 77.2362 4.87621 77.3072 5.01193C77.3782 5.14119 77.4751 5.25429 77.5977 5.35123C77.7139 5.44171 77.843 5.5128 77.985 5.5645C78.127 5.61621 78.2689 5.64206 78.4109 5.64206C78.7208 5.64206 78.9854 5.54188 79.2048 5.34154C79.4372 5.14119 79.5566 4.89237 79.563 4.59508V1.84191C79.563 1.61571 79.6082 1.3992 79.6986 1.19239C79.7889 0.97912 79.9148 0.794929 80.0762 0.639821C80.2311 0.484713 80.415 0.36515 80.628 0.281133C80.8475 0.197117 81.0734 0.155108 81.3057 0.155108C81.5381 0.155108 81.7575 0.197117 81.9641 0.281133C82.1771 0.36515 82.361 0.484713 82.5159 0.639821C82.6708 0.794929 82.7902 0.97912 82.8741 1.19239C82.958 1.3992 83 1.61571 83 1.84191V4.32364C83 5.2349 82.7676 6.06537 82.3029 6.81506C81.8447 7.55183 81.2283 8.11086 80.4538 8.49217V11.1193C80.4538 11.3584 80.4086 11.5846 80.3182 11.7979C80.2343 12.0112 80.1117 12.1986 79.9503 12.3602C79.7954 12.5153 79.6115 12.6381 79.3985 12.7286C79.1855 12.819 78.966 12.8643 78.7401 12.8643Z" fill="#F63235"/>
<path d="M92.7574 12.8451C92.6402 12.8451 92.5231 12.8354 92.4059 12.8161L92.3376 12.7967C91.9535 12.7193 91.6379 12.5225 91.3905 12.2063C91.1302 11.8836 91 11.5254 91 11.1318C91 11.0285 91.0098 10.9285 91.0293 10.8317V1.67461C91.0293 1.44875 91.0749 1.23256 91.166 1.02606C91.2571 0.819558 91.3808 0.638868 91.537 0.483991C91.6932 0.329114 91.8754 0.209729 92.0837 0.125838C92.2985 0.0419459 92.5231 0 92.7574 0C92.9917 0 93.2162 0.0419459 93.431 0.125838C93.6458 0.209729 93.8313 0.329114 93.9875 0.483991C94.1438 0.638868 94.2674 0.819558 94.3585 1.02606C94.4497 1.23256 94.4952 1.44875 94.4952 1.67461V9.41847L97.9319 9.43783C98.1662 9.43783 98.3875 9.483 98.5958 9.57334C98.8041 9.65724 98.9896 9.77985 99.1523 9.94118C99.3085 10.0961 99.4289 10.28 99.5135 10.4929C99.6046 10.7059 99.6502 10.9285 99.6502 11.1608C99.6502 11.6513 99.4842 12.0546 99.1523 12.3708C98.9961 12.5192 98.8106 12.6354 98.5958 12.7193C98.3875 12.8032 98.1662 12.8451 97.9319 12.8451H92.7574Z" fill="#454545"/>
<path d="M105.723 12.9419C105.066 12.9419 104.437 12.8258 103.839 12.5934C103.24 12.3547 102.713 12.0127 102.257 11.5674C101.782 11.1092 101.411 10.5607 101.144 9.92182C100.884 9.28295 100.753 8.56987 100.753 7.78258V5.20774C100.753 4.42045 100.884 3.70414 101.144 3.05882C101.411 2.4135 101.782 1.86175 102.257 1.40357C102.713 0.964755 103.24 0.629188 103.839 0.396873C104.437 0.158104 105.066 0.0387193 105.723 0.0387193C106.374 0.0387193 106.999 0.158104 107.597 0.396873C108.203 0.629188 108.73 0.964755 109.179 1.40357C109.648 1.86821 110.012 2.42318 110.273 3.0685C110.539 3.70737 110.673 4.42045 110.673 5.20774L107.178 5.1787C107.178 4.51402 107.008 4.04616 106.67 3.77513C106.442 3.60089 106.126 3.51378 105.723 3.51378C105.313 3.51378 104.994 3.60089 104.766 3.77513C104.421 4.04616 104.249 4.51402 104.249 5.1787V7.81162C104.249 8.46984 104.421 8.93125 104.766 9.19583C104.994 9.37652 105.313 9.46686 105.723 9.46686C106.126 9.46686 106.442 9.37652 106.67 9.19583C107.008 8.9377 107.178 8.4763 107.178 7.81162V5.20774H110.673V7.78258C110.673 8.56987 110.539 9.28295 110.273 9.92182C110.012 10.5607 109.648 11.1092 109.179 11.5674C108.73 12.0127 108.203 12.3547 107.597 12.5934C106.999 12.8258 106.374 12.9419 105.723 12.9419Z" fill="#454545"/>
<path d="M118.073 12.9419C117.409 12.9419 116.778 12.829 116.179 12.6031C115.587 12.3773 115.066 12.0514 114.617 11.6255C114.149 11.1866 113.784 10.651 113.524 10.0186C113.263 9.3862 113.133 8.67635 113.133 7.88905V5.10127C113.133 4.31397 113.267 3.60412 113.533 2.9717C113.8 2.33284 114.175 1.79077 114.656 1.3455C115.118 0.919583 115.649 0.596922 116.248 0.377513C116.846 0.151651 117.478 0.0387193 118.142 0.0387193C119.138 0.0387193 119.99 0.254902 120.7 0.687267C121.214 1.00347 121.712 1.46488 122.193 2.07148C122.434 2.42641 122.555 2.80069 122.555 3.19434C122.555 3.4202 122.509 3.63639 122.418 3.84289C122.333 4.04939 122.213 4.23008 122.057 4.38496C121.888 4.54629 121.692 4.67213 121.471 4.76247C121.25 4.85282 121.012 4.89799 120.758 4.89799C120.498 4.89799 120.264 4.84959 120.055 4.75279C119.847 4.64954 119.678 4.49789 119.548 4.29784C119.43 4.13006 119.359 4.01713 119.333 3.95905C119.274 3.8558 119.203 3.77513 119.118 3.71705C119.033 3.65252 118.92 3.60089 118.776 3.56217C118.614 3.52991 118.402 3.51378 118.142 3.51378C117.927 3.51378 117.741 3.52668 117.585 3.55249C117.436 3.57185 117.296 3.62348 117.165 3.70737C116.807 3.94614 116.628 4.40109 116.628 5.07223V7.91809C116.628 8.59568 116.798 9.04741 117.136 9.27327C117.266 9.35716 117.403 9.41201 117.546 9.43783C117.689 9.45718 117.865 9.46686 118.073 9.46686C118.575 9.46686 118.952 9.3862 119.206 9.22487C119.317 9.15388 119.414 9.06999 119.499 8.97319C119.583 8.86994 119.675 8.74411 119.772 8.59568V8.46984H119.684C119.45 8.46984 119.229 8.42467 119.02 8.33433C118.812 8.24398 118.63 8.11814 118.474 7.95681C118.317 7.80194 118.194 7.61802 118.103 7.40506C118.018 7.19211 117.976 6.96947 117.976 6.73716C117.976 6.50484 118.018 6.28543 118.103 6.07893C118.194 5.87242 118.317 5.69173 118.474 5.53686C118.63 5.37553 118.812 5.24969 119.02 5.15934C119.229 5.069 119.45 5.02383 119.684 5.02383L121.256 5.04319C121.484 5.04319 121.705 5.08836 121.92 5.1787C122.135 5.26905 122.324 5.39166 122.486 5.54654C122.649 5.70787 122.773 5.89178 122.857 6.09829C122.948 6.29834 122.994 6.51129 122.994 6.73716V8.42144C122.994 8.67957 122.988 8.88285 122.975 9.03127C122.955 9.28295 122.919 9.46686 122.867 9.58302C122.444 10.6607 121.796 11.4996 120.924 12.0998C120.098 12.6612 119.147 12.9419 118.073 12.9419Z" fill="#454545"/>
<path d="M126.948 12.9903C126.714 12.9903 126.489 12.9451 126.274 12.8548C126.066 12.7709 125.884 12.6515 125.728 12.4966C125.572 12.3418 125.448 12.1611 125.357 11.9546C125.266 11.7481 125.22 11.5287 125.22 11.2964V1.69397C125.22 1.46165 125.262 1.24224 125.347 1.03574C125.438 0.829238 125.565 0.645321 125.728 0.483991C125.884 0.329114 126.066 0.209729 126.274 0.125838C126.489 0.0419459 126.714 0 126.948 0C127.182 0 127.407 0.0419459 127.622 0.125838C127.837 0.209729 128.022 0.329114 128.178 0.483991C128.341 0.645321 128.465 0.829238 128.549 1.03574C128.64 1.24224 128.686 1.46165 128.686 1.69397V11.2964C128.686 11.5287 128.64 11.7481 128.549 11.9546C128.458 12.1611 128.335 12.3418 128.178 12.4966C128.022 12.6515 127.837 12.7709 127.622 12.8548C127.407 12.9451 127.182 12.9903 126.948 12.9903Z" fill="#454545"/>
<path d="M132.396 12.8451C132.09 12.8451 131.81 12.7999 131.556 12.7096C131.309 12.6193 131.098 12.4934 130.922 12.3321C130.753 12.1708 130.622 11.9804 130.531 11.761C130.44 11.5351 130.395 11.2899 130.395 11.0253C130.395 10.4962 130.567 10.0993 130.912 9.8347C131.257 9.57012 131.752 9.43783 132.396 9.43783H135.608C135.673 9.43783 135.745 9.42492 135.823 9.39911C135.901 9.37329 135.973 9.33457 136.038 9.28295C136.2 9.15388 136.282 8.99255 136.282 8.79896C136.282 8.52147 136.174 8.3311 135.96 8.22785C135.855 8.18268 135.781 8.15686 135.735 8.15041C135.663 8.1375 135.628 8.13105 135.628 8.13105H134.095C133.561 8.11814 133.057 8.01167 132.582 7.81162C132.106 7.61157 131.69 7.34053 131.332 6.99851C130.974 6.65004 130.694 6.24994 130.492 5.79821C130.297 5.34003 130.199 4.84636 130.199 4.3172C130.199 3.76868 130.31 3.24274 130.531 2.73939C130.753 2.22959 131.058 1.78109 131.449 1.39389C131.846 1.00025 132.298 0.696947 132.806 0.483991C133.32 0.264582 133.861 0.154877 134.427 0.154877H137.19C137.828 0.154877 138.326 0.300074 138.684 0.590469C139.042 0.880864 139.221 1.29064 139.221 1.81981C139.221 2.4006 139.042 2.84264 138.684 3.14594C138.326 3.44924 137.828 3.60089 137.19 3.60089H134.192C134.023 3.60089 133.887 3.65252 133.782 3.75577C133.678 3.85257 133.626 3.97841 133.626 4.13328C133.626 4.29461 133.665 4.43336 133.743 4.54952C133.828 4.65922 133.942 4.71407 134.085 4.71407H135.559C136.132 4.71407 136.672 4.81087 137.18 5.00447C137.694 5.19161 138.143 5.45942 138.527 5.80789C138.918 6.15637 139.217 6.56937 139.426 7.04691C139.64 7.52445 139.748 8.0407 139.748 8.59568C139.748 9.15066 139.64 9.68627 139.426 10.2025C139.211 10.7188 138.911 11.1737 138.527 11.5674C138.143 11.9675 137.694 12.2805 137.18 12.5063C136.672 12.7322 136.132 12.8451 135.559 12.8451H132.396Z" fill="#454545"/>
<path d="M145.576 13C145.349 13 145.134 12.9581 144.932 12.8742C144.73 12.7903 144.554 12.6709 144.405 12.516C144.255 12.3611 144.138 12.1804 144.053 11.9739C143.969 11.7674 143.926 11.548 143.926 11.3157V3.57185H142.013C141.778 3.57185 141.554 3.52991 141.339 3.44602C141.131 3.35567 140.949 3.23306 140.792 3.07818C140.636 2.92331 140.513 2.73939 140.421 2.52643C140.337 2.31348 140.294 2.09084 140.294 1.85853C140.294 1.62621 140.337 1.4068 140.421 1.2003C140.513 0.993795 140.636 0.813105 140.792 0.658228C140.955 0.496897 141.141 0.374286 141.349 0.290395C141.557 0.20005 141.778 0.154877 142.013 0.154877H149.101C149.329 0.154877 149.55 0.20005 149.765 0.290395C149.98 0.38074 150.165 0.503351 150.321 0.658228C150.484 0.819558 150.608 1.0067 150.692 1.21966C150.783 1.43261 150.829 1.65525 150.829 1.88757C150.829 2.11988 150.783 2.33929 150.692 2.54579C150.608 2.74584 150.484 2.92331 150.321 3.07818C150.165 3.23306 149.98 3.35567 149.765 3.44602C149.557 3.52991 149.335 3.57185 149.101 3.57185H147.324V11.3157C147.324 11.548 147.278 11.7674 147.187 11.9739C147.096 12.1804 146.969 12.3611 146.807 12.516C146.644 12.6709 146.455 12.7903 146.24 12.8742C146.025 12.9581 145.804 13 145.576 13Z" fill="#454545"/>
<path d="M154.07 12.9903C153.836 12.9903 153.611 12.9451 153.397 12.8548C153.188 12.7709 153.006 12.6515 152.85 12.4966C152.694 12.3418 152.57 12.1611 152.479 11.9546C152.388 11.7481 152.342 11.5287 152.342 11.2964V1.69397C152.342 1.46165 152.385 1.24224 152.469 1.03574C152.56 0.829238 152.687 0.645321 152.85 0.483991C153.006 0.329114 153.188 0.209729 153.397 0.125838C153.611 0.0419459 153.836 0 154.07 0C154.305 0 154.529 0.0419459 154.744 0.125838C154.959 0.209729 155.144 0.329114 155.301 0.483991C155.463 0.645321 155.587 0.829238 155.672 1.03574C155.763 1.24224 155.808 1.46165 155.808 1.69397V11.2964C155.808 11.5287 155.763 11.7481 155.672 11.9546C155.58 12.1611 155.457 12.3418 155.301 12.4966C155.144 12.6515 154.959 12.7709 154.744 12.8548C154.529 12.9451 154.305 12.9903 154.07 12.9903Z" fill="#454545"/>
<path d="M163.131 12.9419C162.467 12.9419 161.839 12.829 161.246 12.6031C160.654 12.3773 160.133 12.0514 159.684 11.6255C159.216 11.1866 158.851 10.651 158.591 10.0186C158.33 9.3862 158.2 8.67635 158.2 7.88905V5.10127C158.2 4.31397 158.33 3.60412 158.591 2.9717C158.851 2.33284 159.216 1.79077 159.684 1.3455C160.133 0.919583 160.654 0.596922 161.246 0.377513C161.839 0.151651 162.467 0.0387193 163.131 0.0387193C164.126 0.0387193 164.979 0.254902 165.689 0.687267C166.203 1.00347 166.701 1.46488 167.182 2.07148C167.43 2.43286 167.553 2.8136 167.553 3.2137C167.553 3.43956 167.508 3.65575 167.417 3.86225C167.326 4.0623 167.199 4.23976 167.036 4.39464C166.873 4.54952 166.678 4.67213 166.45 4.76247C166.229 4.85282 165.994 4.89799 165.747 4.89799C165.493 4.89799 165.259 4.84959 165.044 4.75279C164.836 4.64954 164.67 4.49789 164.546 4.29784C164.429 4.13006 164.358 4.01713 164.331 3.95905C164.273 3.8558 164.198 3.77513 164.107 3.71705C164.022 3.65252 163.908 3.60089 163.765 3.56217C163.603 3.52991 163.391 3.51378 163.131 3.51378C162.916 3.51378 162.737 3.52668 162.594 3.55249C162.45 3.57185 162.317 3.62348 162.193 3.70737C161.861 3.94614 161.695 4.40109 161.695 5.07223V7.91809C161.695 8.59568 161.861 9.04741 162.193 9.27327C162.317 9.35716 162.45 9.41201 162.594 9.43783C162.737 9.45718 162.916 9.46686 163.131 9.46686C163.391 9.46686 163.596 9.45073 163.746 9.41847C163.902 9.3862 164.026 9.33457 164.117 9.26359C164.201 9.19906 164.273 9.11839 164.331 9.02159C164.429 8.85381 164.53 8.70539 164.634 8.57632C164.745 8.4408 164.888 8.3311 165.064 8.24721C165.272 8.15041 165.497 8.10201 165.737 8.10201C165.991 8.10201 166.229 8.14718 166.45 8.23753C166.671 8.32142 166.863 8.4408 167.026 8.59568C167.189 8.75701 167.316 8.94093 167.407 9.14743C167.505 9.34748 167.553 9.56044 167.553 9.7863C167.553 10.1993 167.43 10.5768 167.182 10.9188C166.701 11.5319 166.203 11.9901 165.689 12.2934C164.979 12.7257 164.126 12.9419 163.131 12.9419Z" fill="#454545"/>
<path d="M170.648 12.8451C170.342 12.8451 170.063 12.7999 169.809 12.7096C169.561 12.6193 169.35 12.4934 169.174 12.3321C169.005 12.1708 168.875 11.9804 168.784 11.761C168.692 11.5351 168.647 11.2899 168.647 11.0253C168.647 10.4962 168.819 10.0993 169.164 9.8347C169.509 9.57012 170.004 9.43783 170.648 9.43783H173.86C173.925 9.43783 173.997 9.42492 174.075 9.39911C174.153 9.37329 174.225 9.33457 174.29 9.28295C174.453 9.15388 174.534 8.99255 174.534 8.79896C174.534 8.52147 174.427 8.3311 174.212 8.22785C174.108 8.18268 174.033 8.15686 173.987 8.15041C173.916 8.1375 173.88 8.13105 173.88 8.13105H172.347C171.813 8.11814 171.309 8.01167 170.834 7.81162C170.359 7.61157 169.942 7.34053 169.584 6.99851C169.226 6.65004 168.946 6.24994 168.744 5.79821C168.549 5.34003 168.452 4.84636 168.452 4.3172C168.452 3.76868 168.562 3.24274 168.784 2.73939C169.005 2.22959 169.311 1.78109 169.701 1.39389C170.098 1.00025 170.551 0.696947 171.058 0.483991C171.573 0.264582 172.113 0.154877 172.679 0.154877H175.442C176.08 0.154877 176.578 0.300074 176.936 0.590469C177.294 0.880864 177.473 1.29064 177.473 1.81981C177.473 2.4006 177.294 2.84264 176.936 3.14594C176.578 3.44924 176.08 3.60089 175.442 3.60089H172.445C172.276 3.60089 172.139 3.65252 172.035 3.75577C171.931 3.85257 171.878 3.97841 171.878 4.13328C171.878 4.29461 171.918 4.43336 171.996 4.54952C172.08 4.65922 172.194 4.71407 172.337 4.71407H173.812C174.384 4.71407 174.925 4.81087 175.432 5.00447C175.946 5.19161 176.396 5.45942 176.78 5.80789C177.17 6.15637 177.47 6.56937 177.678 7.04691C177.893 7.52445 178 8.0407 178 8.59568C178 9.15066 177.893 9.68627 177.678 10.2025C177.463 10.7188 177.164 11.1737 176.78 11.5674C176.396 11.9675 175.946 12.2805 175.432 12.5063C174.925 12.7322 174.384 12.8451 173.812 12.8451H170.648Z" fill="#454545"/>
</svg>
