<svg width="30" height="22" viewBox="0 0 30 22" fill="none" xmlns="http://www.w3.org/2000/svg">
<g clip-path="url(#clip0_3203_2704)">
<path d="M1 1H29.0547V21H1V1Z" fill="#D80027"/>
<path d="M15 20.9649C20.1556 20.9649 24.3351 16.4956 24.3351 10.9825C24.3351 5.4693 20.1556 1 15 1C9.84429 1 5.66479 5.4693 5.66479 10.9825C5.66479 16.4956 9.84429 20.9649 15 20.9649Z" fill="#D80027"/>
<path d="M21.9124 10.9825L19.0905 12.4035L20.5944 15.3275L17.5265 14.7018L17.1382 18.0117L14.9999 15.5731L12.8616 18.0117L12.4733 14.7018L9.40537 15.3275L10.9093 12.4035L8.0874 10.9825L10.9093 9.56141L9.40537 6.63158L12.4733 7.26316L12.8616 3.94737L14.9999 6.38597L17.1382 3.94737L17.5265 7.26316L20.5944 6.63158L19.0905 9.56141L21.9124 10.9825Z" fill="#FFDA44"/>
<path d="M15.0765 15.1696C17.2391 15.1696 18.9921 13.2949 18.9921 10.9825C18.9921 8.66996 17.2391 6.79532 15.0765 6.79532C12.914 6.79532 11.1609 8.66996 11.1609 10.9825C11.1609 13.2949 12.914 15.1696 15.0765 15.1696Z" fill="#D80027"/>
<path d="M12.7141 10.9825C12.5992 10.9825 12.4898 10.9883 12.375 11C12.3805 11.7018 12.6156 12.3392 13.0094 12.8421C13.2172 12.2398 13.5289 11.6959 13.9227 11.2222C13.5453 11.0643 13.1406 10.9825 12.7141 10.9825ZM14.1688 13.7018C14.4531 13.8129 14.7594 13.8713 15.0766 13.8713C15.3937 13.8713 15.7 13.8129 15.9844 13.7018C15.8312 13.0526 15.5086 12.4737 15.0766 12.0175C14.6445 12.4737 14.3219 13.0526 14.1688 13.7018ZM17.4172 9.53801C16.9523 8.67251 16.0773 8.09357 15.0766 8.09357C14.0758 8.09357 13.2063 8.67251 12.7359 9.53801C13.5891 9.54386 14.3875 9.78947 15.0766 10.2164C15.7656 9.78947 16.5641 9.53801 17.4172 9.53801ZM16.2305 11.2222C16.6242 11.6901 16.9359 12.2398 17.1438 12.8421C17.5375 12.345 17.7727 11.7018 17.7781 11C17.6687 10.9883 17.5539 10.9825 17.4391 10.9825C17.018 10.9825 16.6078 11.0643 16.2305 11.2222Z" fill="#FFDA44"/>
</g>
<rect x="0.5" y="0.5" width="29" height="21" rx="3.5" stroke="#DFDFDF"/>
<defs>
<clipPath id="clip0_3203_2704">
<rect x="1" y="1" width="28" height="20" rx="3" fill="white"/>
</clipPath>
</defs>
</svg>
