<svg width="30" height="22" viewBox="0 0 30 22" fill="none" xmlns="http://www.w3.org/2000/svg">
<g clip-path="url(#clip0_5008_106)">
<path d="M1 1H29V21H1V1Z" fill="#36B6CC"/>
<path d="M15.0001 14.9942C17.0619 14.9942 18.7334 13.2033 18.7334 10.9942C18.7334 8.78502 17.0619 6.99416 15.0001 6.99416C12.9382 6.99416 11.2667 8.78502 11.2667 10.9942C11.2667 13.2033 12.9382 14.9942 15.0001 14.9942Z" fill="#FFD400"/>
<path d="M14.9999 15.7076L13.4771 18.1462L13.0896 15.2398L10.7317 16.731L11.5613 13.9357L8.8323 14.1813L10.7099 12.0468L8.15004 10.9942L10.7044 9.94152L8.82684 7.80702L11.5559 8.05263L10.7263 5.25731L13.0842 6.74269L13.4717 3.83626L14.9945 6.27486L16.5173 3.83626L16.9048 6.74269L19.2627 5.25731L18.4331 8.05263L21.1621 7.80702L19.29 9.94737L21.8444 10.9942L19.29 12.0468L21.1676 14.1813L18.4385 13.9357L19.2682 16.731L16.9103 15.2456L16.5227 18.152C16.5227 18.1462 14.9999 15.7076 14.9999 15.7076ZM14.9999 15.6608C17.407 15.6608 19.361 13.5673 19.361 10.9883C19.361 8.40936 17.407 6.32164 14.9999 6.32164C12.5929 6.32164 10.6389 8.41521 10.6389 10.9942C10.6389 13.5731 12.5929 15.6608 14.9999 15.6608ZM2.24438 2.65497C2.24438 2.46784 2.37538 2.32164 2.5555 2.32164H3.17226C3.34692 2.32164 3.48337 2.46199 3.48337 2.65497V3.31579C3.48883 3.49708 3.35238 3.64913 3.17772 3.64913H2.5555C2.3863 3.64913 2.24438 3.50293 2.24438 3.32164V2.65497ZM2.24438 5.32749C2.24438 5.14035 2.37538 4.99415 2.5555 4.99415H3.17226C3.34692 4.99415 3.48337 5.13451 3.48337 5.32749V5.98831C3.48883 6.16959 3.35238 6.32164 3.17772 6.32164H2.5555C2.3863 6.32164 2.24438 6.17544 2.24438 5.99415V5.32749ZM2.24438 7.99415C2.24438 7.80702 2.37538 7.66082 2.5555 7.66082H3.17226C3.34692 7.66082 3.48337 7.80117 3.48337 7.99415V8.65497C3.48883 8.83626 3.35238 8.98831 3.17772 8.98831H2.5555C2.3863 8.98831 2.24438 8.84211 2.24438 8.66082V7.99415ZM2.24438 10.6608C2.24438 10.4737 2.37538 10.3275 2.5555 10.3275H3.17226C3.34692 10.3275 3.48337 10.4678 3.48337 10.6608V11.3216C3.48883 11.5029 3.35238 11.655 3.17772 11.655H2.5555C2.3863 11.655 2.24438 11.5088 2.24438 11.3275V10.6608ZM2.24438 13.3333C2.24438 13.1462 2.37538 13 2.5555 13H3.17226C3.34692 13 3.48337 13.1404 3.48337 13.3333V13.9942C3.48883 14.1754 3.35238 14.3275 3.17772 14.3275H2.5555C2.3863 14.3275 2.24438 14.1813 2.24438 14V13.3333ZM2.24438 16C2.24438 15.8129 2.37538 15.6667 2.5555 15.6667H3.17226C3.34692 15.6667 3.48337 15.807 3.48337 16V16.6608C3.48883 16.8421 3.35238 16.9942 3.17772 16.9942H2.5555C2.3863 16.9942 2.24438 16.848 2.24438 16.6667V16ZM2.24438 18.6667C2.24438 18.4795 2.37538 18.3333 2.5555 18.3333H3.17226C3.34692 18.3333 3.48337 18.4737 3.48337 18.6667V19.3275C3.48883 19.5088 3.35238 19.6608 3.17772 19.6608H2.5555C2.3863 19.6608 2.24438 19.5146 2.24438 19.3333V18.6667ZM3.48883 17.3333C3.48883 17.1462 3.61982 17 3.79994 17H4.4167C4.59136 17 4.72782 17.1404 4.72782 17.3333V17.9942C4.73327 18.1754 4.59682 18.3275 4.42216 18.3275H3.79994C3.63074 18.3275 3.48883 18.1813 3.48883 18V17.3333ZM3.48883 14.6667C3.48883 14.4795 3.61982 14.3333 3.79994 14.3333H4.4167C4.59136 14.3333 4.72782 14.4737 4.72782 14.6667V15.3275C4.73327 15.5088 4.59682 15.6608 4.42216 15.6608H3.79994C3.63074 15.6608 3.48883 15.5146 3.48883 15.3333V14.6667ZM3.48883 11.9942C3.48883 11.807 3.61982 11.6608 3.79994 11.6608H4.4167C4.59136 11.6608 4.72782 11.8012 4.72782 11.9942V12.655C4.73327 12.8363 4.59682 12.9883 4.42216 12.9883H3.79994C3.63074 12.9883 3.48883 12.8421 3.48883 12.6608V11.9942ZM3.48883 9.32749C3.48883 9.14035 3.61982 8.99415 3.79994 8.99415H4.4167C4.59136 8.99415 4.72782 9.13451 4.72782 9.32749V9.98831C4.73327 10.1696 4.59682 10.3216 4.42216 10.3216H3.79994C3.63074 10.3216 3.48883 10.1754 3.48883 9.99415V9.32749ZM3.48883 6.66082C3.48883 6.47369 3.61982 6.32749 3.79994 6.32749H4.4167C4.59136 6.32749 4.72782 6.46784 4.72782 6.66082V7.32164C4.73327 7.50293 4.59682 7.65497 4.42216 7.65497H3.79994C3.63074 7.65497 3.48883 7.50877 3.48883 7.32749V6.66082ZM3.48883 3.99415C3.48883 3.80702 3.61982 3.66082 3.79994 3.66082H4.4167C4.59136 3.66082 4.72782 3.80117 4.72782 3.99415V4.65497C4.73327 4.83626 4.59682 4.98831 4.42216 4.98831H3.79994C3.63074 4.98831 3.48883 4.84211 3.48883 4.66082V3.99415Z" fill="#FFD400"/>
</g>
<rect x="0.5" y="0.5" width="29" height="21" rx="2.5" stroke="#DFDFDF"/>
<defs>
<clipPath id="clip0_5008_106">
<rect x="1" y="1" width="28" height="20" rx="2" fill="white"/>
</clipPath>
</defs>
</svg>
