<svg width="73" height="15" viewBox="0 0 73 15" fill="none" xmlns="http://www.w3.org/2000/svg">
<g clip-path="url(#clip0_3408_770)">
<path d="M5.52932 3.68233C5.5745 3.66604 5.65946 3.6407 5.7191 3.62623C5.7914 3.60995 5.889 3.60451 6.00828 3.60995C6.10769 3.61357 6.25229 3.63348 6.32821 3.65518C6.40591 3.67509 6.51978 3.71128 6.58123 3.7366C6.6445 3.76193 6.84151 3.86508 7.02044 3.9682C7.19938 4.07135 7.45602 4.22153 7.58977 4.30115C7.72351 4.38075 7.88438 4.47303 7.94583 4.50742C8.0091 4.54179 8.06151 4.57798 8.06693 4.58702C8.07055 4.59788 7.99283 4.74806 7.89341 4.92176C7.79402 5.09547 7.60605 5.42297 7.47409 5.65097C7.34397 5.87714 7.22649 6.06531 7.21383 6.07074C7.203 6.07618 7.09273 6.0237 6.96983 5.95495C6.84874 5.88437 6.7186 5.81561 6.68064 5.80115C6.6445 5.78486 6.56498 5.7722 6.50533 5.7722C6.44567 5.7722 6.37519 5.78304 6.34628 5.79752C6.31915 5.81199 6.27939 5.84276 6.2577 5.86628C6.23783 5.88799 6.02637 6.24264 5.78958 6.64976C5.55463 7.05868 5.22025 7.63589 5.04855 7.93443C4.87685 8.23298 4.72322 8.49535 4.70333 8.51525C4.68346 8.54058 4.48284 8.62382 4.15207 8.74685C3.86471 8.8518 3.62432 8.93866 3.61347 8.93866C3.60263 8.93866 3.59178 8.9477 3.58636 8.95675C3.58094 8.96579 3.6225 9.21911 3.67674 9.51767C3.73095 9.81622 3.77613 10.0786 3.77613 10.1021C3.77613 10.1238 3.7183 10.2396 3.64781 10.359C3.57732 10.4785 3.43815 10.7227 3.33694 10.9019C3.23752 11.081 2.96641 11.5532 2.73688 11.9513C2.50553 12.3494 2.3049 12.7004 2.29045 12.7294C2.27418 12.7601 2.25611 12.809 2.25069 12.8379C2.24345 12.8687 2.24525 12.9248 2.25611 12.9646C2.26514 13.0044 2.3049 13.0731 2.34286 13.1166C2.38804 13.1673 2.49829 13.2451 2.66457 13.3428C2.85436 13.4549 2.91761 13.5002 2.91761 13.5273C2.91581 13.5454 2.72964 13.8856 2.50191 14.28C2.24707 14.7197 2.07537 14.9984 2.0591 15.0002C2.04464 15.0002 1.7428 14.8319 1.39035 14.6274C1.03791 14.4212 0.696308 14.2149 0.63124 14.1678C0.566173 14.1208 0.445076 14.0086 0.361935 13.9218C0.251683 13.8024 0.192039 13.7209 0.134202 13.6069C0.0926317 13.5219 0.0438314 13.388 0.0257573 13.3084C0.000453606 13.198 -0.00496862 13.1184 0.00406843 12.9736C0.00949065 12.8397 0.0275647 12.7384 0.0619055 12.6299C0.0890168 12.5448 0.143239 12.4109 0.183002 12.3313C0.222765 12.2517 0.314943 12.0852 0.385432 11.9604C0.457728 11.8355 0.5481 11.6781 0.586056 11.6075C0.62401 11.5388 0.772218 11.2782 0.91681 11.0285C1.0614 10.7806 1.31083 10.3482 1.47169 10.0695C1.63255 9.7909 1.81509 9.47786 1.99041 9.18292L1.97958 8.78486C1.97234 8.56593 1.9633 8.30174 1.94523 8.00681L2.33201 7.80053C2.54529 7.68654 2.77844 7.56351 2.85075 7.5237C2.97545 7.45675 2.98448 7.44951 3.07848 7.28848C3.13089 7.1962 3.32066 6.8687 3.49598 6.55928C3.67312 6.25168 3.85024 5.94228 3.89 5.8717C3.92976 5.80115 4.07979 5.5424 4.22438 5.2927C4.36897 5.04481 4.55694 4.72273 4.64188 4.57798C4.72684 4.43322 4.84251 4.25409 4.89854 4.17991C4.95457 4.10572 5.04855 4.00077 5.10638 3.9483C5.16424 3.89402 5.26545 3.81984 5.33052 3.78184C5.39557 3.74203 5.48415 3.69861 5.52932 3.68233Z" fill="#C687FF"/>
<path d="M69.2948 5.854C69.3889 5.83771 69.5443 5.81781 69.6382 5.81057C69.7321 5.80152 69.8984 5.79428 70.0087 5.79248C70.119 5.79248 70.3015 5.7997 70.4154 5.80876C70.5293 5.81781 70.6812 5.83589 70.7498 5.84676C70.8184 5.85762 70.9576 5.88656 71.057 5.91189C71.1565 5.93542 71.3119 5.98427 71.4005 6.01864C71.489 6.05303 71.6156 6.11092 71.6806 6.14711C71.7457 6.1815 71.8469 6.24482 71.9064 6.28825C71.9661 6.32986 72.0638 6.40948 72.1233 6.46377C72.183 6.51805 72.2789 6.62299 72.3349 6.69717C72.3909 6.77137 72.4705 6.8926 72.5103 6.96678C72.55 7.04096 72.6115 7.18753 72.6457 7.29248C72.6801 7.39741 72.7216 7.55483 72.7361 7.64531C72.7505 7.73577 72.7705 7.87511 72.7922 8.10671H71.2107V8.0651C71.2107 8.04337 71.198 7.97643 71.1818 7.91672C71.1656 7.857 71.1276 7.75568 71.0968 7.69234C71.0606 7.61998 70.9993 7.53854 70.9305 7.47341C70.871 7.41731 70.7895 7.354 70.7498 7.33409C70.71 7.31237 70.6197 7.278 70.5511 7.25629C70.4479 7.2219 70.3702 7.21286 70.1262 7.20742C69.8948 7.2002 69.7974 7.20562 69.6924 7.22733C69.6184 7.24361 69.5099 7.2798 69.4502 7.30695C69.3907 7.33409 69.3112 7.39019 69.2677 7.43722C69.2226 7.48789 69.1809 7.55665 69.1593 7.61816C69.1358 7.69054 69.1303 7.74844 69.1358 7.8353C69.1411 7.90044 69.1611 7.98186 69.1773 8.01624C69.1955 8.05061 69.2279 8.10671 69.2515 8.13747C69.275 8.17004 69.3327 8.22252 69.3798 8.25508C69.4286 8.28583 69.5117 8.33107 69.5658 8.35279C69.6202 8.3745 70.0269 8.4704 70.4696 8.5663C70.9125 8.66039 71.3787 8.77258 71.5088 8.81419C71.6391 8.8558 71.818 8.92275 71.9064 8.96437C71.995 9.00598 72.1397 9.0874 72.2265 9.14349C72.3149 9.19959 72.4452 9.30635 72.5192 9.37691C72.5915 9.44929 72.6892 9.5651 72.7343 9.63566C72.7778 9.70623 72.8355 9.81116 72.8608 9.87087C72.8844 9.93059 72.9187 10.0247 72.9332 10.079C72.9494 10.1332 72.9694 10.2418 72.9801 10.3178C72.9909 10.3956 73 10.5259 73 10.6073C73 10.6905 72.9874 10.8353 72.9729 10.9294C72.9585 11.0235 72.935 11.1375 72.9205 11.1827C72.9079 11.2279 72.8735 11.3166 72.8464 11.3817C72.8193 11.4469 72.7525 11.5681 72.6981 11.6531C72.6421 11.7382 72.5318 11.8721 72.4506 11.9517C72.3693 12.0313 72.2463 12.1344 72.1777 12.1815C72.1071 12.2267 71.9897 12.2973 71.9155 12.3371C71.8414 12.3769 71.7024 12.4384 71.6083 12.4728C71.5144 12.509 71.3552 12.5579 71.2559 12.585C71.1565 12.6103 70.9775 12.6483 70.8583 12.6664C70.7389 12.6863 70.4985 12.7117 70.3251 12.7225C70.0882 12.7388 69.9292 12.737 69.6924 12.7225C69.519 12.7098 69.2912 12.6863 69.1864 12.6682C69.0816 12.6501 68.9189 12.6139 68.825 12.5886C68.7309 12.5633 68.5719 12.509 68.4724 12.4674C68.373 12.4276 68.2338 12.3606 68.1652 12.319C68.0966 12.2774 67.9936 12.2104 67.9392 12.1706C67.885 12.1308 67.7838 12.0404 67.717 11.9698C67.6484 11.901 67.5471 11.7744 67.491 11.6893C67.435 11.6043 67.3591 11.4668 67.3229 11.3817C67.2867 11.2967 67.2361 11.1429 67.209 11.038C67.1837 10.933 67.1548 10.7629 67.144 10.658C67.1349 10.553 67.126 10.4535 67.126 10.4354C67.126 10.4065 67.1784 10.4047 68.8068 10.4047L68.8141 10.4445C68.8194 10.468 68.8321 10.5313 68.8448 10.5856C68.8556 10.6399 68.89 10.7376 68.9207 10.8027C68.9551 10.8769 69.0128 10.9583 69.0761 11.0198C69.1322 11.0759 69.2262 11.1465 69.2859 11.1773C69.3454 11.208 69.4557 11.2515 69.5298 11.2732C69.6346 11.3039 69.7321 11.3148 69.9546 11.322C70.2003 11.3293 70.2709 11.3256 70.4245 11.2931C70.5238 11.2732 70.6541 11.2316 70.7136 11.2026C70.7733 11.1736 70.8619 11.1103 70.9088 11.0615C70.9631 11.0054 71.0082 10.9384 71.0317 10.8751C71.0553 10.8154 71.0697 10.7285 71.0715 10.658C71.0715 10.5928 71.0624 10.5078 71.0479 10.468C71.0353 10.4282 71.0029 10.3648 70.9775 10.3287C70.9522 10.2925 70.8854 10.2328 70.8311 10.1966C70.7769 10.1622 70.6829 10.117 70.6232 10.0971C70.5635 10.0771 70.2185 9.99935 69.8551 9.92517C69.4919 9.84917 69.1467 9.77499 69.087 9.76051C69.0273 9.74602 68.9007 9.70803 68.8068 9.67727C68.7129 9.64652 68.5466 9.57956 68.4363 9.52891C68.3261 9.47643 68.1743 9.39139 68.0966 9.34072C68.0207 9.28825 67.8977 9.18692 67.8253 9.11454C67.7531 9.04398 67.661 8.93542 67.6193 8.8757C67.5796 8.81599 67.5218 8.71648 67.4892 8.65315C67.4585 8.59163 67.4133 8.47402 67.3897 8.39078C67.3664 8.30936 67.3356 8.15194 67.3229 8.04337C67.3067 7.89139 67.3067 7.79729 67.3229 7.64531C67.3338 7.53674 67.3591 7.38475 67.3808 7.31057C67.4006 7.23639 67.4495 7.10609 67.4892 7.02105C67.5289 6.93601 67.5977 6.8184 67.641 6.75869C67.6826 6.69899 67.782 6.5886 67.8597 6.51262C67.9392 6.43662 68.0713 6.32986 68.1561 6.27558C68.2411 6.21949 68.3495 6.15435 68.4001 6.12903C68.4489 6.1055 68.5682 6.05665 68.6623 6.02046C68.7562 5.98607 68.8989 5.94084 68.9786 5.91913C69.0581 5.89923 69.2008 5.87028 69.2948 5.854Z" fill="#FFFCFC"/>
<path d="M10.1563 0.79614C10.366 0.432449 10.5576 0.104946 10.5829 0.0687576C10.6064 0.03076 10.6353 0 10.6443 0C10.6552 0 10.9443 0.164656 11.2896 0.363692C11.6366 0.564535 11.9673 0.761761 12.027 0.801569C12.0866 0.843185 12.2005 0.940892 12.2818 1.02232C12.3613 1.10193 12.459 1.21592 12.4969 1.27563C12.5367 1.33534 12.5909 1.44391 12.618 1.51628C12.6451 1.58685 12.6777 1.70627 12.6885 1.77684C12.6993 1.84921 12.7048 1.97406 12.6975 2.05368C12.6921 2.1333 12.6704 2.25995 12.6487 2.33413C12.6288 2.40833 12.5819 2.53498 12.5439 2.6146C12.5078 2.6942 12.4156 2.86429 12.3415 2.99458C12.2656 3.12303 12.1698 3.29493 12.1264 3.37455C12.0872 3.44963 11.8969 3.77898 11.6965 4.12584L11.6601 4.18878C11.4468 4.55789 11.1558 5.0573 11.0148 5.30156C10.8738 5.54584 10.7455 5.7702 10.7311 5.79915C10.7076 5.8462 10.7058 5.93124 10.7202 6.42341C10.7275 6.73643 10.7311 7.00421 10.7256 7.01508C10.7202 7.02774 10.6497 7.07479 10.5666 7.11822C10.4853 7.16163 10.2593 7.27924 9.71349 7.55971L9.33575 8.21652C9.12971 8.57841 8.78087 9.18457 8.56218 9.56272C8.34168 9.9409 8.09406 10.3643 8.01091 10.5036C7.92777 10.6429 7.81571 10.8094 7.76329 10.8746C7.71269 10.9397 7.6169 11.0374 7.55183 11.0917C7.48676 11.146 7.37651 11.222 7.30783 11.2581C7.23916 11.2943 7.11805 11.3414 7.03853 11.3613C6.94815 11.3848 6.83791 11.3993 6.74391 11.3993C6.66259 11.3993 6.54149 11.3866 6.4728 11.3721C6.40593 11.3577 6.29568 11.3269 6.2252 11.3034C6.15471 11.2799 6.03722 11.2292 5.96312 11.1912C5.88901 11.1532 5.60345 10.9903 5.33052 10.8293C5.0576 10.6683 4.79191 10.5163 4.74311 10.491C4.69252 10.4656 4.64732 10.4349 4.6419 10.4204C4.63466 10.4059 4.72866 10.2195 4.87143 9.96984C5.00519 9.73643 5.19316 9.40712 5.28896 9.23884C5.38655 9.07056 5.47693 8.92944 5.48776 8.92762C5.50042 8.924 5.59441 8.96923 5.69562 9.02715C5.79864 9.08686 5.93059 9.15742 5.99023 9.18456C6.06613 9.21894 6.1294 9.23522 6.19809 9.23522C6.26496 9.23522 6.31737 9.22256 6.36075 9.19903C6.39509 9.17912 6.44751 9.13027 6.47462 9.09046C6.50353 9.05247 6.69873 8.72317 6.90839 8.35948C7.11321 8.0011 7.43736 7.44066 7.97251 6.51546L7.99646 6.47406L8.54772 6.27503C8.85136 6.16646 9.10078 6.076 9.10078 6.07418C9.10258 6.07238 9.06102 5.81001 9.00681 5.49155C8.95439 5.17311 8.91463 4.89626 8.92185 4.87636C8.92726 4.85645 8.99053 4.74246 9.06282 4.62303C9.13333 4.50362 9.24537 4.31181 9.31044 4.19782C9.37551 4.08383 9.48756 3.88298 9.55987 3.75453C9.63217 3.62606 9.85087 3.24608 10.0443 2.91316C10.2394 2.58021 10.4075 2.27986 10.422 2.24909C10.4347 2.21652 10.4455 2.15139 10.4455 2.10253C10.4455 2.0392 10.4329 1.99578 10.3913 1.93245C10.3533 1.87093 10.2973 1.82026 10.2051 1.76236C10.1346 1.71713 10.0099 1.64113 9.93039 1.5959C9.85087 1.54885 9.78398 1.49819 9.78036 1.48372C9.77676 1.46924 9.94665 1.15983 10.1563 0.79614Z" fill="#C687FF"/>
<path fill-rule="evenodd" clip-rule="evenodd" d="M15.9039 3.61914H18.3258L18.4361 3.92312C18.4976 4.08958 18.6783 4.58717 18.841 5.03048C19.0035 5.47379 19.3037 6.29164 19.5097 6.84894C19.7157 7.40624 20.0248 8.24941 20.1984 8.72167C20.3735 9.19393 20.5454 9.66075 20.5815 9.75846C20.6177 9.85618 20.6575 9.93216 20.6664 9.92856C20.6755 9.92494 20.8002 9.60828 20.943 9.2265C21.0839 8.84471 21.3586 8.09924 21.5539 7.5727C21.7491 7.04617 22.0799 6.15412 22.2877 5.5914C22.4955 5.02868 22.745 4.35557 23.0161 3.61914H25.447L25.4379 12.6029H23.5222L23.5185 9.7657C23.5131 7.16378 23.5113 6.93036 23.4842 6.93578C23.4625 6.9376 23.4046 7.07512 23.2871 7.4008C23.195 7.65412 22.8715 8.53893 22.5678 9.36402C22.2641 10.1891 21.8883 11.2168 21.7329 11.6439C21.5755 12.0709 21.4327 12.4653 21.3803 12.6119L19.9471 12.6029L19.6507 11.7977C19.4897 11.3544 19.1698 10.475 18.9403 9.8435C18.7127 9.21202 18.3801 8.30009 18.203 7.81696C17.9626 7.16378 17.8722 6.9376 17.8504 6.93578C17.8216 6.93036 17.8198 7.11855 17.8107 12.6029L15.9039 12.6119V3.61914ZM45.6719 3.61914H47.606V10.9292H51.7268L51.7177 12.6029H45.681L45.6719 3.61914ZM59.7517 3.61914H61.6134V5.21142C61.6134 6.47258 61.6187 6.80371 61.6369 6.80371C61.6476 6.80371 61.6875 6.75304 61.7217 6.69152C61.7561 6.63 61.8501 6.51239 61.9295 6.43277C62.0092 6.35135 62.1484 6.23736 62.237 6.17945C62.3273 6.11974 62.4683 6.04193 62.5532 6.00394C62.6382 5.96776 62.7809 5.91528 62.8695 5.88996C62.9599 5.86461 63.1297 5.83024 63.2491 5.81576C63.399 5.79585 63.5328 5.79043 63.6829 5.79767C63.8021 5.80309 63.9738 5.81938 64.0623 5.83566C64.1527 5.85015 64.3154 5.89176 64.4238 5.92614C64.5341 5.96051 64.7077 6.02927 64.8125 6.07994C64.9173 6.13242 65.0673 6.21746 65.1468 6.27173C65.2263 6.32421 65.3511 6.42011 65.4215 6.48163C65.4938 6.54496 65.6077 6.65713 65.6728 6.73133C65.7396 6.80551 65.8446 6.94484 65.9078 7.03893C65.9691 7.13301 66.065 7.30491 66.121 7.4189C66.1752 7.53289 66.2493 7.71202 66.2837 7.81696C66.3181 7.92191 66.365 8.10466 66.3903 8.22409C66.4156 8.34352 66.4464 8.51902 66.4609 8.61311C66.4753 8.71987 66.4844 8.96594 66.4844 9.26449C66.4844 9.55581 66.4753 9.80733 66.4609 9.90683C66.4482 9.99731 66.4211 10.1547 66.4011 10.2597C66.3794 10.3646 66.3308 10.551 66.2908 10.6758C66.2511 10.8007 66.1734 10.9961 66.1192 11.1101C66.065 11.2241 65.9674 11.3996 65.9005 11.4991C65.8337 11.6004 65.6963 11.7669 65.5897 11.8773C65.4847 11.984 65.3311 12.1252 65.2463 12.1885C65.1613 12.2518 64.9985 12.3514 64.8848 12.4111C64.7709 12.469 64.6082 12.5431 64.5232 12.5721C64.4384 12.6011 64.2919 12.6427 64.198 12.6626C64.1039 12.6843 63.9322 12.7096 63.8183 12.7205C63.7045 12.7313 63.5293 12.7349 63.4298 12.7295C63.3304 12.7223 63.1714 12.7024 63.0773 12.6843C62.9834 12.6662 62.8406 12.63 62.761 12.6047C62.6815 12.5775 62.5442 12.5196 62.4537 12.4762C62.3653 12.431 62.2188 12.3405 62.1284 12.2717C62.0399 12.2048 61.9151 12.0872 61.8538 12.013C61.7905 11.9406 61.7217 11.8447 61.7002 11.8013C61.6766 11.7597 61.6476 11.7253 61.6369 11.7253C61.6187 11.7253 61.6116 11.8284 61.6043 12.6029L59.7517 12.6119V3.61914ZM62.5532 7.45689C62.479 7.48766 62.3526 7.5546 62.273 7.60707C62.1935 7.66136 62.0851 7.75183 62.0308 7.80972C61.9784 7.86944 61.9098 7.95268 61.8791 7.99791C61.8483 8.04314 61.7886 8.15171 61.7453 8.24217C61.7037 8.33265 61.6496 8.48283 61.6243 8.57692C61.6007 8.67102 61.5718 8.8212 61.561 8.91166C61.5501 9.00213 61.541 9.15954 61.541 9.26449C61.541 9.36944 61.5501 9.52686 61.561 9.61734C61.5718 9.7078 61.6007 9.85798 61.6243 9.95207C61.6496 10.0462 61.7091 10.2054 61.7561 10.3049C61.805 10.4044 61.8918 10.5456 61.9495 10.6197C62.0092 10.6939 62.1049 10.7953 62.1646 10.8441C62.2243 10.8912 62.3544 10.9708 62.4537 11.0196C62.5531 11.0685 62.6996 11.1228 62.7791 11.1408C62.8804 11.1626 62.9905 11.1716 63.1497 11.1716C63.3159 11.1698 63.4136 11.159 63.5202 11.13C63.5997 11.1101 63.7389 11.0558 63.8274 11.0124C63.9178 10.969 64.0461 10.8839 64.1147 10.826C64.1835 10.7681 64.2848 10.665 64.3372 10.5944C64.3895 10.5257 64.4617 10.4153 64.4944 10.3501C64.5287 10.285 64.5774 10.171 64.6027 10.0968C64.628 10.0226 64.6606 9.90503 64.6768 9.83446C64.6968 9.75123 64.7095 9.58115 64.7166 9.34591C64.7239 9.05822 64.7203 8.94965 64.6968 8.81214C64.6806 8.71805 64.6462 8.57149 64.6209 8.48645C64.5938 8.40141 64.5485 8.2838 64.5197 8.22409C64.489 8.16437 64.4346 8.07209 64.3986 8.01781C64.3625 7.96354 64.2974 7.87848 64.2521 7.82963C64.2071 7.77897 64.1256 7.70479 64.0714 7.66317C64.0172 7.61974 63.916 7.55642 63.8454 7.52203C63.7768 7.48766 63.6665 7.44243 63.6015 7.4207C63.5364 7.4008 63.4316 7.37547 63.3666 7.36461C63.3015 7.35557 63.1876 7.34833 63.1135 7.34833C63.0393 7.34833 62.9128 7.36101 62.8333 7.37547C62.7538 7.38996 62.6273 7.42795 62.5532 7.45689ZM34.4118 4.19815H36.2915V5.91708H37.6109L37.6018 7.37367L36.2915 7.38271L36.2968 8.9985C36.3006 10.6016 36.3006 10.6125 36.3403 10.7301C36.3621 10.7953 36.4072 10.8839 36.4398 10.9292C36.474 10.9744 36.5301 11.0287 36.5644 11.0522C36.5988 11.0757 36.6711 11.1119 36.7253 11.1336C36.8174 11.1698 36.8536 11.1734 37.6651 11.1734V11.8664C37.6651 12.2464 37.6597 12.5612 37.6524 12.5649C37.6435 12.5703 37.5603 12.5902 37.4663 12.6101C37.3722 12.6282 37.2133 12.6553 37.1138 12.6662C37.0146 12.6789 36.7903 12.6879 36.6168 12.6879C36.418 12.6879 36.2265 12.6752 36.1017 12.6571C35.9933 12.6408 35.8342 12.6065 35.7493 12.5811C35.6643 12.5576 35.5469 12.516 35.4872 12.4889C35.4275 12.4635 35.3227 12.4092 35.2558 12.3676C35.1872 12.3278 35.0734 12.241 35.0028 12.1758C34.9306 12.1107 34.8311 11.9967 34.7787 11.9225C34.7281 11.8483 34.6558 11.7235 34.6196 11.6439C34.5834 11.5643 34.5365 11.4376 34.5166 11.3634C34.4968 11.2892 34.4678 11.1626 34.4515 11.083C34.4298 10.9617 34.4244 10.6469 34.4118 7.38271L33.3002 7.37367L33.2911 5.91708H34.4118V4.19815ZM29.8933 5.80129C30.0776 5.80491 30.3089 5.8212 30.4084 5.83566C30.5078 5.85195 30.6705 5.88271 30.7698 5.90804C30.8693 5.93157 31.0158 5.975 31.0952 6.00394C31.1747 6.03289 31.3175 6.09623 31.4114 6.14326C31.5055 6.19031 31.6574 6.27897 31.7459 6.34049C31.8363 6.4002 31.9862 6.52868 32.0803 6.62276C32.1778 6.72047 32.3025 6.86884 32.3676 6.96655C32.4308 7.06063 32.5212 7.21805 32.57 7.31576C32.6189 7.41166 32.6893 7.58356 32.729 7.69573C32.767 7.80612 32.8158 7.97076 32.8358 8.06125C32.8575 8.15171 32.8864 8.30551 32.9008 8.40503C32.917 8.50454 32.9388 8.72529 32.9496 8.89358C32.9605 9.06366 32.9641 9.28259 32.9586 9.3821C32.9514 9.48163 32.9406 9.60106 32.9206 9.73495H30.5764C28.7112 9.73495 28.2305 9.74037 28.2305 9.75846C28.2305 9.76932 28.2431 9.85256 28.2576 9.94302C28.272 10.0335 28.3009 10.1674 28.3209 10.2416C28.3426 10.3158 28.395 10.4497 28.4383 10.5401C28.4816 10.6306 28.5631 10.7591 28.6226 10.8278C28.6823 10.9002 28.7853 10.9943 28.863 11.0468C28.9371 11.0974 29.0475 11.1589 29.107 11.1807C29.1667 11.2024 29.2606 11.2331 29.315 11.2476C29.3692 11.2621 29.5119 11.2838 29.6311 11.2946C29.7956 11.3109 29.9004 11.3109 30.0649 11.2946C30.1843 11.2838 30.3415 11.2567 30.4137 11.2368C30.4843 11.2168 30.5909 11.177 30.6488 11.1481C30.7048 11.1191 30.7969 11.0594 30.8513 11.016C30.9054 10.9726 30.9885 10.8803 31.0338 10.8097C31.0808 10.741 31.1421 10.6252 31.2218 10.4225H32.8664L32.8538 10.4949C32.8449 10.5347 32.8105 10.6541 32.7743 10.7627C32.7381 10.8694 32.673 11.0341 32.628 11.1282C32.5845 11.2223 32.4959 11.3779 32.4344 11.472C32.3711 11.5661 32.2737 11.6963 32.2175 11.7615C32.1598 11.8266 32.055 11.9316 31.9844 11.9931C31.9122 12.0564 31.7819 12.1577 31.6916 12.2175C31.603 12.2772 31.4567 12.3622 31.3663 12.4038C31.2777 12.4472 31.1188 12.5124 31.0138 12.5468C30.909 12.5812 30.7229 12.63 30.5982 12.6553C30.4734 12.6807 30.2547 12.7096 30.1102 12.7223C29.9655 12.7331 29.7541 12.7367 29.6402 12.7295C29.5263 12.7241 29.3383 12.706 29.2244 12.6915C29.1107 12.677 28.9318 12.6427 28.8268 12.6173C28.722 12.592 28.5684 12.5468 28.4836 12.5178C28.3986 12.4889 28.2485 12.4237 28.149 12.3767C28.0498 12.3278 27.8997 12.2428 27.8147 12.1849C27.7299 12.1288 27.5978 12.0293 27.5183 11.9623C27.4406 11.8972 27.3196 11.7778 27.2508 11.6981C27.1822 11.6185 27.0736 11.4756 27.0104 11.3815C26.9471 11.2874 26.8532 11.1191 26.8008 11.0106C26.7502 10.902 26.6816 10.7301 26.6489 10.6306C26.6165 10.5311 26.5695 10.3483 26.5441 10.2235C26.5188 10.0986 26.4882 9.89959 26.4773 9.78018C26.4629 9.63723 26.4574 9.40745 26.4647 9.10165C26.4718 8.76328 26.4844 8.58778 26.5098 8.44122C26.5297 8.33265 26.5622 8.17704 26.5821 8.09743C26.6039 8.01781 26.6454 7.8803 26.676 7.78984C26.7086 7.69935 26.7737 7.54556 26.8208 7.44605C26.8694 7.34652 26.9598 7.1873 27.023 7.0932C27.0845 6.99912 27.2146 6.8417 27.3087 6.74217C27.4026 6.64447 27.5545 6.50877 27.6431 6.44182C27.7334 6.37488 27.8635 6.28802 27.9321 6.24821C28.0027 6.2066 28.1075 6.15232 28.1672 6.12517C28.2267 6.09803 28.3533 6.04737 28.4474 6.01299C28.5413 5.97862 28.7003 5.93157 28.7997 5.90804C28.8992 5.88452 29.0708 5.85195 29.1793 5.83748C29.2897 5.8212 29.4198 5.80491 29.4686 5.80129C29.5192 5.79767 29.7088 5.79767 29.8933 5.80129ZM29.2155 7.29405C29.1467 7.31396 29.0329 7.36099 28.9642 7.39718C28.8956 7.43519 28.7853 7.51299 28.722 7.5727C28.657 7.63242 28.5666 7.73916 28.5196 7.80792C28.4745 7.87848 28.4112 7.99611 28.3804 8.07029C28.3497 8.14447 28.3082 8.27114 28.2882 8.35074C28.2685 8.43036 28.2467 8.52626 28.2414 8.56425L28.2305 8.63121H31.1945C31.1783 8.45569 31.1621 8.35256 31.1476 8.28742C31.135 8.22229 31.1079 8.12094 31.0862 8.06125C31.0662 8.00153 31.0193 7.9002 30.9831 7.83507C30.947 7.76993 30.8602 7.65954 30.7898 7.58899C30.6939 7.4949 30.6217 7.44243 30.5078 7.38633C30.4228 7.34471 30.2891 7.29405 30.2095 7.27234C30.1084 7.247 29.9908 7.23254 29.8119 7.22891C29.6728 7.22529 29.5101 7.22891 29.4504 7.23796C29.3907 7.24882 29.2859 7.27235 29.2155 7.29405ZM41.6505 5.79947C41.88 5.80309 42.1673 5.81938 42.2921 5.83566C42.4168 5.85195 42.5958 5.88089 42.6897 5.9008C42.7838 5.9207 42.9428 5.96413 43.0422 5.9967C43.1417 6.02927 43.2753 6.08356 43.3404 6.11613C43.4054 6.1487 43.5158 6.21202 43.5844 6.25727C43.655 6.3025 43.7651 6.39296 43.8301 6.4581C43.8952 6.52324 43.9875 6.63542 44.0326 6.70418C44.0779 6.77474 44.1394 6.88875 44.1682 6.95751C44.1989 7.02806 44.2386 7.14567 44.2586 7.21987C44.2784 7.29405 44.3056 7.42432 44.3201 7.50937C44.3381 7.63242 44.3436 8.14447 44.3436 12.6029H42.5722L42.5687 12.0112C42.5632 11.4593 42.5614 11.4177 42.5325 11.4177C42.5108 11.4177 42.4872 11.4484 42.4601 11.5118C42.4386 11.5643 42.368 11.6855 42.3065 11.7796C42.245 11.8737 42.1276 12.0166 42.0481 12.0962C41.9686 12.1758 41.8348 12.288 41.7499 12.3441C41.6649 12.4002 41.5348 12.4744 41.4607 12.5088C41.3865 12.5431 41.2564 12.592 41.1716 12.6173C41.0866 12.6445 40.9401 12.6789 40.8462 12.6951C40.7287 12.7168 40.5786 12.7259 40.3673 12.7259C40.1648 12.7259 39.9985 12.715 39.8791 12.6951C39.7799 12.6789 39.6171 12.6408 39.5177 12.6101C39.4182 12.5793 39.2719 12.5214 39.1924 12.4816C39.1129 12.4418 38.9953 12.3713 38.9303 12.326C38.8652 12.279 38.7658 12.1939 38.7098 12.1378C38.6521 12.0799 38.567 11.9732 38.5182 11.9026C38.4712 11.8302 38.4043 11.7054 38.3719 11.6258C38.3393 11.5462 38.2942 11.4087 38.2742 11.3182C38.2436 11.1843 38.2363 11.0956 38.2363 10.8296C38.2363 10.5528 38.2416 10.4804 38.2778 10.3411C38.2995 10.2506 38.3411 10.1221 38.3701 10.0516C38.399 9.98283 38.4623 9.86884 38.5111 9.79827C38.5597 9.72951 38.6521 9.62276 38.7152 9.56124C38.7784 9.49971 38.8923 9.41107 38.9664 9.36402C39.0406 9.31516 39.1671 9.24641 39.2466 9.21022C39.3261 9.17221 39.4689 9.11793 39.563 9.08717C39.6569 9.0546 39.8196 9.00937 39.9244 8.98584C40.0292 8.96051 40.2117 8.92432 40.3311 8.90442C40.4503 8.88452 40.8535 8.823 41.2258 8.7669C41.5981 8.71263 41.9704 8.65111 42.0534 8.63121C42.1349 8.6113 42.2397 8.57512 42.2885 8.55159C42.3356 8.52806 42.3915 8.48826 42.4133 8.46473C42.4348 8.44302 42.4675 8.39055 42.4837 8.35074C42.509 8.29646 42.5163 8.22771 42.5163 8.07029C42.5163 7.92915 42.5054 7.82421 42.4837 7.74459C42.4675 7.67945 42.4313 7.58717 42.4042 7.53831C42.3771 7.48946 42.3192 7.41708 42.2741 7.37729C42.2288 7.33566 42.144 7.27957 42.0843 7.25244C42.0246 7.22529 41.9071 7.1891 41.8221 7.17282C41.7047 7.1493 41.6034 7.14567 41.3883 7.15292C41.1661 7.16016 41.0793 7.17102 40.9636 7.20359C40.8841 7.2271 40.772 7.27595 40.7125 7.31034C40.6546 7.34471 40.5751 7.40986 40.5353 7.45509C40.4974 7.50032 40.445 7.57812 40.4232 7.62698C40.3997 7.67765 40.3708 7.76087 40.36 7.81334C40.3491 7.86402 40.3402 7.9581 40.3402 8.13362L39.8756 8.14809C39.6189 8.15533 39.2231 8.16075 38.5779 8.16075L38.5888 7.81334C38.5995 7.52023 38.6086 7.43519 38.6483 7.28319C38.6736 7.18368 38.7316 7.02988 38.7731 6.9394C38.8164 6.85074 38.9032 6.71323 38.9629 6.63723C39.0244 6.55943 39.1418 6.44363 39.2249 6.37848C39.3063 6.31334 39.4509 6.21926 39.5448 6.17221C39.6389 6.12336 39.7979 6.0546 39.8973 6.02023C39.9968 5.98584 40.1522 5.94061 40.2407 5.9207C40.3311 5.899 40.4938 5.87005 40.6022 5.85377C40.7125 5.83748 40.8986 5.81758 41.018 5.80853C41.1372 5.79947 41.4227 5.79585 41.6505 5.79947ZM42.3554 9.65533C42.3065 9.67523 42.209 9.7078 42.1385 9.72409C42.0698 9.74037 41.7138 9.80551 41.3486 9.87064C40.9185 9.94664 40.6401 10.0045 40.5624 10.0353C40.4938 10.0606 40.407 10.1041 40.3673 10.1312C40.3275 10.1583 40.2678 10.2126 40.2352 10.2524C40.2028 10.2904 40.1593 10.3682 40.1395 10.4225C40.1124 10.4949 40.1033 10.5655 40.1033 10.6758C40.1033 10.7609 40.1142 10.8622 40.1269 10.902C40.1413 10.9418 40.1719 11.0106 40.1973 11.0558C40.2243 11.1011 40.2769 11.1626 40.3149 11.1951C40.3546 11.2259 40.4305 11.2711 40.4847 11.2965C40.5389 11.32 40.6202 11.3489 40.6654 11.3598C40.7105 11.3706 40.8244 11.3851 40.9185 11.3924C41.0395 11.3996 41.1481 11.3942 41.28 11.3743C41.3847 11.358 41.5348 11.3218 41.6143 11.2946C41.6938 11.2675 41.8241 11.2078 41.9036 11.1644C42 11.1101 42.1 11.0317 42.2035 10.9292C42.3247 10.8097 42.3735 10.7446 42.424 10.6396C42.4601 10.5655 42.4981 10.4515 42.5072 10.3863C42.5181 10.3212 42.5272 10.1113 42.5272 9.92132C42.5272 9.62818 42.5234 9.57209 42.5019 9.57209C42.4872 9.57209 42.4675 9.58115 42.4601 9.59381C42.453 9.60648 42.406 9.63362 42.3554 9.65533ZM55.5495 5.79405C55.6887 5.79223 55.9201 5.79947 56.0646 5.80853C56.2091 5.81938 56.4278 5.84471 56.5526 5.86461C56.6773 5.88451 56.8236 5.91166 56.878 5.92614C56.9322 5.94061 57.0423 5.97318 57.122 6.00032C57.2015 6.02747 57.3316 6.08174 57.4111 6.12155C57.4906 6.16136 57.6009 6.22468 57.6551 6.26087C57.7094 6.29888 57.7978 6.36764 57.8522 6.41649C57.9063 6.46534 57.9841 6.55038 58.0256 6.60466C58.0691 6.65895 58.1323 6.75666 58.1665 6.82179C58.2027 6.88693 58.2533 7.00092 58.2804 7.07512C58.3057 7.1493 58.3455 7.28501 58.3654 7.37367C58.4034 7.53469 58.4034 7.57088 58.4143 12.6119H56.6429L56.6394 12.0202C56.6338 11.443 56.6338 11.4267 56.5978 11.4213C56.5688 11.4177 56.5526 11.4376 56.5164 11.5208C56.4929 11.5787 56.4242 11.7 56.3645 11.7886C56.305 11.8791 56.1876 12.0202 56.1026 12.1053C56.0175 12.1903 55.891 12.2971 55.8206 12.3441C55.7518 12.3912 55.6255 12.4617 55.5404 12.4997C55.4554 12.5395 55.3344 12.5902 55.2694 12.6101C55.2043 12.63 55.0922 12.6589 55.0216 12.6752C54.9495 12.6897 54.794 12.7114 54.6784 12.7223C54.5608 12.7331 54.3838 12.7367 54.2843 12.7295C54.1849 12.7241 54.0259 12.706 53.9318 12.6897C53.8379 12.6752 53.6914 12.6427 53.6065 12.6173C53.5215 12.5938 53.3806 12.5395 53.2902 12.4961C53.2016 12.4545 53.0877 12.393 53.0371 12.3586C52.9883 12.3242 52.8908 12.2446 52.822 12.1795C52.7552 12.1143 52.663 12.0112 52.6215 11.9515C52.578 11.8918 52.5094 11.7741 52.4697 11.6891C52.4317 11.6041 52.3811 11.4702 52.3611 11.3905C52.3396 11.3109 52.3125 11.1481 52.3016 11.0287C52.2852 10.864 52.2852 10.7627 52.3016 10.6125C52.3125 10.5039 52.3431 10.3429 52.3684 10.2561C52.3937 10.1674 52.4388 10.0462 52.4697 9.98463C52.5021 9.92132 52.5527 9.83446 52.5818 9.78922C52.6124 9.74399 52.6757 9.66799 52.721 9.61914C52.766 9.57029 52.8637 9.48525 52.9377 9.42915C53.0118 9.37306 53.151 9.28802 53.2449 9.24278C53.339 9.19573 53.5144 9.12518 53.6336 9.08537C53.7529 9.04738 53.968 8.98946 54.1125 8.95871C54.2572 8.92977 54.7361 8.85195 55.179 8.78501C55.6217 8.71987 56.0446 8.65111 56.1188 8.63301C56.1929 8.61493 56.2906 8.58054 56.3357 8.55883C56.3809 8.53711 56.4369 8.50092 56.4604 8.47921C56.4822 8.45931 56.5201 8.40865 56.5399 8.36884C56.5743 8.30733 56.5797 8.2657 56.5797 8.07933C56.5797 7.9581 56.5688 7.81878 56.5543 7.76269C56.5417 7.7084 56.5055 7.61613 56.4731 7.55642C56.4422 7.49852 56.3827 7.4189 56.3412 7.38089C56.2977 7.3411 56.2255 7.29043 56.1785 7.26691C56.1296 7.24338 56.0466 7.21081 55.9922 7.19273C55.9254 7.17282 55.8044 7.15834 55.6217 7.15292C55.4192 7.14567 55.3091 7.15111 55.1844 7.17282C55.0922 7.1891 54.9657 7.22167 54.9042 7.247C54.8409 7.27235 54.7434 7.32842 54.6873 7.37367C54.624 7.42252 54.5608 7.49308 54.5283 7.55098C54.4975 7.60165 54.4615 7.68669 54.4469 7.73554C54.4306 7.78622 54.4144 7.89478 54.3963 8.13362L53.9336 8.14809C53.6787 8.15533 53.2849 8.16075 52.6395 8.16075L52.6522 7.84049C52.6613 7.63964 52.6775 7.45689 52.6992 7.35557C52.719 7.26691 52.7587 7.13121 52.7878 7.05701C52.8149 6.98283 52.8764 6.8598 52.9232 6.7856C52.9685 6.71142 53.066 6.58837 53.1401 6.51419C53.2125 6.44001 53.3299 6.34049 53.3987 6.29526C53.4691 6.24821 53.583 6.18307 53.6516 6.14688C53.7222 6.11251 53.8596 6.0546 53.9589 6.02023C54.0583 5.98584 54.2373 5.93699 54.3565 5.91166C54.4759 5.88633 54.6873 5.85195 54.8265 5.83748C54.9657 5.8212 55.1284 5.80672 55.1879 5.80309C55.2476 5.79947 55.4103 5.79585 55.5495 5.79405ZM56.4442 9.64447C56.4098 9.66257 56.3357 9.6897 56.2815 9.70418C56.2273 9.72047 55.8604 9.79104 55.4681 9.8598C55.076 9.93036 54.7217 9.99912 54.6819 10.0118C54.6422 10.0263 54.5663 10.0588 54.5157 10.086C54.4633 10.1113 54.3856 10.1674 54.3439 10.2108C54.3023 10.2524 54.2481 10.332 54.2228 10.3863C54.1922 10.4569 54.1758 10.5293 54.1704 10.6306C54.1631 10.7428 54.1704 10.8043 54.2011 10.9074C54.2319 11.0142 54.2572 11.0558 54.3349 11.139C54.3945 11.2042 54.4686 11.2585 54.5374 11.291C54.5969 11.3182 54.6946 11.3526 54.7541 11.3652C54.8194 11.3797 54.9621 11.3887 55.1066 11.3869C55.3018 11.3851 55.385 11.3761 55.5224 11.3399C55.6164 11.3164 55.7591 11.2657 55.8386 11.2295C55.9181 11.1915 56.032 11.1264 56.0917 11.0848C56.1514 11.0413 56.2526 10.9509 56.3139 10.8821C56.3809 10.8115 56.4549 10.703 56.4911 10.6306C56.5255 10.5618 56.5617 10.4587 56.5707 10.4044C56.5814 10.3501 56.5905 10.1403 56.5905 9.9394C56.5923 9.71142 56.5852 9.57029 56.5743 9.56487C56.5652 9.55943 56.5454 9.56667 56.5328 9.58295C56.5182 9.59924 56.4784 9.62638 56.4442 9.64447Z" fill="#FFFCFC"/>
</g>
<defs>
<clipPath id="clip0_3408_770">
<rect width="73" height="15" fill="white"/>
</clipPath>
</defs>
</svg>
