<?xml version="1.0" standalone="no"?>
<!DOCTYPE svg PUBLIC "-//W3C//DTD SVG 20010904//EN"
 "http://www.w3.org/TR/2001/REC-SVG-20010904/DTD/svg10.dtd">
<svg version="1.0" xmlns="http://www.w3.org/2000/svg"
 width="2112.000000pt" height="2112.000000pt" viewBox="0 0 2112.000000 2112.000000"
 preserveAspectRatio="xMidYMid meet">
<metadata>
Created by potrace 1.14, written by Peter Selinger 2001-2017
</metadata>
<g transform="translate(0.000000,2112.000000) scale(0.100000,-0.100000)"
fill="#000000" stroke="none">
<path d="M930 14710 c-25 -5 -62 -11 -83 -15 -22 -4 -56 -13 -78 -20 -22 -8
-43 -15 -47 -16 -4 -1 -20 -7 -37 -13 -16 -5 -33 -9 -37 -8 -5 1 -8 -2 -8 -8
0 -5 -9 -10 -20 -10 -11 0 -20 -4 -20 -10 0 -5 -5 -10 -12 -10 -10 0 -105 -56
-118 -70 -3 -3 -23 -18 -45 -35 -76 -57 -222 -218 -248 -275 -4 -8 -16 -28
-26 -45 -39 -60 -92 -182 -106 -242 -2 -10 -9 -36 -15 -58 -6 -22 -14 -51 -17
-65 -4 -14 -8 -1427 -9 -3140 -3 -3284 -4 -3182 39 -3322 8 -26 12 -49 9 -52
-3 -4 0 -6 6 -6 7 0 12 -7 12 -16 0 -35 125 -252 152 -262 4 -2 8 -8 8 -13 0
-5 24 -33 53 -61 122 -123 245 -209 372 -261 33 -13 69 -28 80 -32 11 -5 25
-9 30 -10 6 0 16 -4 23 -8 6 -5 12 -6 12 -2 0 3 8 1 19 -4 18 -10 48 -16 161
-29 73 -9 3481 -7 3545 2 123 18 228 49 335 99 36 17 68 30 73 29 4 -1 7 2 7
8 0 5 6 10 13 10 7 0 23 9 35 20 12 11 24 20 28 20 7 0 84 60 112 87 7 7 18
13 23 13 5 0 9 6 9 14 0 8 6 16 14 19 7 3 41 43 75 89 34 45 65 88 70 94 26
32 96 212 116 299 18 75 32 210 29 293 -2 73 -13 193 -19 202 -2 4 -6 17 -9
31 -11 59 -32 125 -41 131 -5 4 -7 8 -2 8 4 0 1 13 -8 30 -8 16 -15 32 -15 35
1 20 -96 194 -139 248 -22 28 -140 147 -171 172 -68 56 -253 159 -303 169 -6
2 -25 8 -40 14 -15 7 -42 14 -59 17 -17 3 -34 8 -38 10 -39 24 -196 27 -1307
28 l-1111 0 -4 44 c-2 24 0 51 3 60 3 10 3 31 -1 48 -3 16 -3 44 0 60 3 17 3
48 0 71 -4 22 -4 49 0 58 3 10 3 42 0 72 -3 31 -3 57 1 60 4 2 5 14 2 27 -3
12 -4 33 -3 47 1 14 1 32 1 40 -1 8 -1 26 0 40 0 14 0 32 0 40 -1 8 -1 26 0
40 0 14 1 30 0 35 -1 20 -2 141 -2 161 l1 20 898 1 c493 1 913 4 932 7 19 3
53 8 75 11 58 8 110 23 190 52 77 29 218 101 223 114 2 5 8 9 13 9 22 0 152
110 224 191 92 102 197 311 219 434 2 17 7 41 10 55 6 26 19 147 18 165 -7
109 -12 175 -16 195 -3 14 -8 39 -12 55 -15 81 -108 312 -133 335 -10 9 -51
69 -51 74 0 20 -124 149 -200 208 -41 32 -80 62 -86 67 -12 10 -179 91 -187
91 -3 0 -18 5 -34 12 -15 6 -32 12 -38 14 -78 21 -128 33 -163 38 -24 3 -48 9
-54 12 -7 5 -8 2 -3 -6 6 -10 4 -11 -6 -4 -8 5 -392 9 -905 10 -515 0 -896 5
-905 10 -15 9 -21 64 -7 64 5 0 4 9 -2 20 -7 13 -7 20 -1 20 7 0 7 9 3 23 -5
12 -6 36 -2 52 3 17 3 49 -1 73 -3 23 -2 45 3 48 4 3 4 12 -1 21 -5 9 -5 28
-1 43 4 15 4 33 0 40 -4 7 -4 25 0 40 4 15 4 33 0 40 -4 7 -4 25 0 40 4 15 5
32 1 38 -4 6 -5 29 -3 52 l4 40 1102 1 c1021 0 1189 2 1256 14 103 17 208 50
282 87 32 15 61 28 64 27 4 0 10 3 13 8 3 5 29 23 56 41 28 18 65 45 84 60 43
34 181 173 181 182 0 4 13 24 30 45 29 36 134 235 125 235 -3 0 2 17 10 38 8
20 19 57 25 82 6 25 13 54 15 65 11 44 18 135 17 225 0 99 -7 165 -27 255 -4
17 -8 35 -9 42 -1 7 -5 16 -9 19 -4 4 -7 17 -7 29 0 12 -3 25 -7 29 -5 4 -9
11 -9 14 -8 36 -96 220 -112 232 -4 3 -20 24 -36 48 -34 50 -147 167 -190 197
-15 11 -47 34 -70 51 -37 28 -187 104 -211 108 -5 1 -16 5 -24 10 -7 5 -30 13
-50 18 -20 5 -52 13 -71 18 -19 5 -48 12 -65 17 -40 10 -3577 13 -3635 3z"/>
<path d="M6750 14713 c-176 -27 -377 -100 -484 -175 -98 -69 -193 -158 -261
-243 -22 -27 -43 -51 -47 -53 -5 -2 -8 -7 -8 -12 0 -12 -62 -113 -75 -122 -5
-4 -7 -8 -3 -8 4 0 -1 -15 -11 -32 -25 -45 -68 -180 -81 -253 -19 -110 -28
-285 -15 -305 3 -5 3 -10 -2 -10 -9 0 -8 -103 1 -126 3 -7 1 -16 -5 -19 -5 -4
-7 -11 -4 -16 9 -13 11 -99 3 -99 -4 0 -3 -13 2 -30 5 -17 5 -32 0 -35 -5 -3
-6 -15 -1 -28 5 -13 5 -30 1 -38 -5 -8 -5 -21 0 -28 4 -8 4 -27 0 -42 -5 -16
-6 -29 -2 -29 4 0 7 -16 7 -35 0 -19 -3 -35 -7 -35 -4 0 -3 -13 2 -30 5 -17 5
-32 0 -35 -6 -3 -5 -16 0 -29 5 -13 7 -26 4 -28 -7 -7 -9 -137 -2 -144 3 -3 2
-19 -2 -35 -5 -16 -6 -29 -2 -29 4 0 7 -16 7 -35 0 -19 -3 -35 -7 -35 -4 0 -3
-13 2 -28 4 -16 4 -35 -1 -43 -4 -8 -4 -21 1 -29 4 -7 4 -24 0 -36 -5 -13 -5
-26 -1 -29 5 -3 6 -20 2 -37 -4 -18 -4 -48 0 -65 3 -19 2 -33 -3 -33 -5 0 -6
-5 -3 -11 4 -6 7 -34 6 -62 -1 -29 -1 -60 -1 -69 0 -44 0 -55 1 -83 0 -16 0
-37 -1 -45 0 -8 0 -24 0 -35 1 -19 1 -28 -1 -57 0 -7 0 -29 0 -48 1 -19 1 -43
1 -52 0 -36 0 -54 1 -83 0 -16 0 -37 -1 -45 0 -8 0 -24 0 -35 1 -11 1 -27 1
-35 -3 -68 -2 -121 3 -129 4 -5 2 -12 -3 -15 -5 -4 -6 -18 -2 -34 4 -15 4 -42
0 -59 -4 -18 -3 -33 1 -33 4 0 5 -15 1 -32 -4 -18 -4 -48 0 -65 3 -18 3 -33
-2 -33 -4 0 -4 -13 1 -28 4 -16 4 -35 -1 -43 -4 -8 -4 -21 1 -28 4 -8 4 -27 0
-42 -5 -16 -5 -29 0 -29 4 0 5 -15 1 -32 -4 -18 -4 -46 -1 -63 3 -16 3 -42 -1
-57 -4 -16 -4 -28 1 -28 4 0 5 -15 1 -32 -4 -18 -4 -48 0 -65 3 -18 3 -33 -2
-33 -4 0 -4 -13 1 -28 4 -16 4 -35 -1 -43 -4 -8 -4 -21 1 -28 4 -8 4 -27 0
-42 -5 -16 -5 -29 0 -29 4 0 5 -15 1 -32 -4 -18 -4 -48 0 -65 3 -18 3 -33 -2
-33 -4 0 -4 -13 1 -29 4 -15 4 -34 0 -42 -5 -7 -6 -17 -3 -22 3 -6 5 -35 4
-66 -1 -31 -2 -62 -1 -68 0 -7 0 -21 0 -30 0 -10 0 -31 1 -48 0 -16 0 -37 -1
-45 0 -8 0 -24 0 -35 1 -19 1 -28 -1 -57 0 -7 0 -29 0 -48 1 -19 1 -43 1 -52
0 -36 0 -54 1 -83 0 -16 0 -37 -1 -45 0 -8 0 -24 0 -35 1 -11 1 -27 1 -35 -1
-8 -1 -40 -1 -70 1 -30 1 -61 0 -67 0 -32 0 -41 2 -80 1 -24 -1 -45 -5 -49 -3
-3 -2 -16 3 -28 4 -12 4 -29 0 -37 -5 -8 -5 -21 0 -29 4 -7 4 -23 0 -36 -5
-12 -6 -25 -3 -28 9 -9 9 -76 0 -76 -5 0 -6 -4 -2 -10 3 -5 8 -58 10 -117 8
-184 22 -297 49 -418 8 -33 17 -76 20 -97 3 -20 13 -57 22 -83 8 -26 17 -55
19 -64 12 -59 117 -333 137 -358 6 -7 7 -13 4 -13 -4 0 2 -13 13 -29 12 -16
21 -34 21 -40 0 -6 11 -29 25 -51 14 -22 25 -42 25 -45 0 -9 131 -217 162
-256 15 -20 28 -40 28 -44 0 -4 8 -15 18 -24 9 -9 30 -34 46 -56 17 -22 42
-52 58 -67 15 -16 25 -28 21 -28 -11 0 267 -272 312 -305 22 -17 46 -36 53
-43 8 -6 44 -33 80 -59 37 -26 69 -50 72 -53 3 -3 17 -11 33 -19 15 -8 27 -18
27 -23 0 -4 5 -8 10 -8 6 0 35 -15 64 -34 29 -18 62 -37 74 -40 12 -4 22 -12
22 -17 0 -5 4 -9 10 -9 5 0 53 -22 107 -48 114 -56 298 -131 363 -147 3 -1 12
-4 20 -7 29 -11 165 -47 205 -55 22 -4 42 -8 45 -8 3 -1 16 -5 30 -8 14 -4 41
-9 60 -12 19 -3 51 -7 70 -10 19 -3 49 -7 65 -9 17 -2 30 -5 30 -6 0 0 45 -4
100 -7 189 -11 403 -7 555 12 74 9 116 15 140 20 14 3 41 8 60 11 19 3 43 7
52 10 9 3 25 6 35 8 10 2 38 10 63 17 25 7 50 14 55 15 75 19 256 83 271 95 6
5 19 10 30 12 19 3 193 87 269 130 102 56 251 154 303 197 14 13 18 11 94 -47
31 -24 61 -43 66 -43 5 0 17 -9 27 -20 10 -11 24 -20 32 -20 7 0 13 -4 13 -10
0 -5 7 -10 15 -10 8 0 15 -3 15 -7 0 -5 10 -13 23 -19 12 -7 83 -43 157 -81
178 -91 296 -137 450 -178 36 -9 72 -19 80 -23 8 -3 18 -5 21 -4 4 1 22 -3 40
-9 19 -5 48 -12 64 -14 17 -3 41 -7 55 -10 14 -3 43 -7 65 -10 22 -2 51 -7 64
-10 114 -23 588 -23 696 0 25 6 91 16 130 20 42 5 97 15 117 21 9 3 26 7 37 9
12 3 31 7 43 10 82 18 341 103 372 122 6 4 16 8 21 9 16 2 98 40 195 89 124
63 152 78 174 97 11 10 24 18 29 18 6 0 25 11 42 25 18 13 35 21 39 18 3 -4 6
-2 6 3 0 6 29 29 64 53 36 23 76 53 89 65 14 13 39 33 57 46 35 25 41 30 161
146 46 45 108 108 136 140 29 32 59 66 66 74 16 17 175 234 195 265 6 11 22
39 34 63 12 23 26 42 30 42 4 0 8 4 8 8 0 4 22 49 48 99 27 50 55 106 62 124
7 19 26 61 42 93 15 33 28 63 28 67 0 3 8 24 17 45 9 22 18 44 19 50 1 7 11
38 22 70 17 47 40 125 47 154 0 3 5 23 10 45 4 22 10 47 12 55 2 8 6 27 8 41
2 14 9 47 15 73 6 26 13 69 15 94 3 26 8 63 12 82 12 62 13 4840 1 4890 -28
118 -48 188 -64 225 -10 22 -18 42 -19 45 -20 68 -143 255 -221 335 -58 59
-131 121 -163 139 -9 5 -18 12 -21 16 -11 13 -231 120 -248 120 -10 0 -22 4
-28 9 -10 9 -127 40 -189 49 -54 8 -290 8 -340 0 -22 -3 -62 -11 -90 -18 -27
-6 -57 -13 -65 -15 -144 -33 -360 -156 -474 -271 -59 -59 -156 -177 -156 -190
0 -4 -6 -15 -14 -23 -29 -34 -97 -175 -111 -231 -1 -3 -4 -12 -8 -20 -15 -38
-35 -129 -42 -195 -2 -16 -4 -30 -5 -30 -2 0 -3 -1015 -5 -2255 -1 -1632 -5
-2268 -13 -2301 -44 -181 -206 -332 -402 -376 -30 -6 -156 -6 -190 1 -207 43
-332 192 -357 426 -2 25 -5 1053 -7 2285 -2 1907 -5 2280 -16 2280 -1 0 -3 17
-5 37 -13 127 -136 392 -224 486 -12 12 -20 22 -17 22 16 0 -182 180 -208 189
-6 2 -13 7 -16 11 -8 10 -118 73 -180 101 -69 32 -165 63 -250 80 -87 18 -430
17 -430 -1 0 -3 -8 -6 -17 -7 -96 -6 -325 -109 -446 -199 -74 -56 -227 -210
-227 -229 0 -7 -7 -15 -15 -19 -8 -3 -15 -12 -15 -21 0 -8 -4 -15 -8 -15 -13
0 -99 -179 -127 -265 -61 -181 -58 -58 -60 -2520 l-1 -2260 -22 -65 c-69 -208
-226 -319 -457 -322 -56 -1 -134 11 -159 24 -12 6 -21 10 -21 9 0 -10 -69 30
-110 63 -93 76 -174 195 -189 280 -3 14 -8 30 -11 36 -4 6 -7 1020 -7 2253 0
2290 -1 2348 -37 2440 -6 15 -9 27 -6 27 2 0 -2 15 -10 33 -7 17 -13 34 -13
37 -2 31 -85 191 -143 275 -62 88 -231 255 -259 255 -6 0 -10 4 -10 8 0 4 -30
24 -67 43 -38 18 -70 36 -73 39 -3 3 -32 16 -65 28 -33 13 -69 28 -80 32 -11
5 -33 12 -50 16 -16 4 -34 8 -40 10 -86 23 -344 40 -425 27z"/>
<path d="M16349 14715 c-2 -2 -22 -6 -44 -9 -22 -4 -53 -9 -70 -12 -16 -3 -34
-7 -40 -8 -5 -1 -14 -4 -20 -8 -13 -7 -78 -22 -87 -20 -5 1 -8 -2 -8 -8 0 -5
-7 -10 -15 -10 -18 0 -142 -61 -199 -98 -65 -43 -86 -61 -181 -158 -167 -169
-274 -393 -300 -624 -8 -78 -9 -195 -1 -208 4 -7 4 -12 -1 -12 -10 0 -9 -453
1 -469 4 -6 4 -11 -1 -11 -10 0 -8 -453 1 -469 4 -6 4 -11 -1 -11 -10 0 -8
-453 1 -469 4 -6 4 -11 -1 -11 -10 0 -8 -453 1 -469 4 -6 4 -11 -1 -11 -10 0
-8 -453 1 -469 4 -6 4 -11 -1 -11 -9 0 -8 -294 2 -309 3 -6 3 -11 -2 -11 -10
0 -9 -453 1 -469 4 -6 4 -11 -1 -11 -10 0 -8 -453 1 -469 4 -6 4 -11 -1 -11
-10 0 -8 -453 1 -469 4 -6 4 -11 -1 -11 -10 0 -8 -453 1 -469 4 -6 4 -11 -1
-11 -10 0 -8 -453 1 -469 4 -6 4 -11 -1 -11 -10 0 -8 -453 1 -469 4 -6 4 -11
-1 -11 -4 0 -8 -42 -9 -93 -1 -109 -6 -157 -16 -163 -4 -3 -3 -15 1 -27 5 -12
5 -34 1 -49 -5 -14 -6 -29 -2 -32 3 -4 7 -34 8 -69 1 -34 3 -62 4 -62 1 0 3
-9 4 -20 2 -16 14 -77 21 -105 26 -110 119 -289 215 -414 68 -88 214 -215 310
-268 44 -24 194 -87 221 -92 13 -3 82 -17 102 -22 4 -1 8 -2 10 -4 6 -5 48
-10 112 -15 69 -4 521 -9 540 -5 6 1 12 2 15 1 7 -3 1093 -3 1105 -1 6 1 12 2
15 1 7 -3 613 -3 625 -1 6 1 15 2 20 1 13 -2 449 -3 461 0 5 1 14 1 19 0 6 -1
157 -2 337 -2 292 -1 425 4 491 17 89 17 133 27 142 34 6 5 12 8 15 8 17 -1
90 27 90 34 0 5 3 7 8 5 11 -7 153 65 207 105 128 95 246 226 313 348 40 73
96 225 106 285 2 17 5 30 6 30 4 0 13 142 13 220 0 77 -4 131 -17 205 -11 62
-63 215 -84 248 -8 12 -11 22 -7 22 3 0 -2 12 -13 28 -10 15 -22 35 -25 45
-33 91 -242 310 -359 376 -21 12 -53 29 -70 39 -87 48 -247 103 -348 118 -44
7 -164 16 -190 14 -34 -3 -69 -2 -108 3 -18 2 -35 0 -38 -5 -3 -5 -10 -6 -15
-2 -5 3 -434 8 -952 11 -518 3 -971 6 -1007 6 l-65 2 -1 65 c0 36 4 70 8 77 5
6 5 13 1 16 -10 6 -9 249 1 265 4 7 4 12 -1 12 -10 0 -10 291 0 308 5 6 5 12
0 12 -10 0 -10 231 0 247 4 6 4 14 -1 17 -9 6 -9 147 0 162 4 6 5 14 1 18 -11
10 -9 186 2 186 7 0 7 3 0 8 -9 6 -13 266 -5 297 1 6 1 12 0 15 -8 19 -4 270
5 270 7 0 7 3 0 8 -12 8 -14 141 -3 158 4 6 4 14 0 18 -11 12 -9 176 3 176 7
0 7 3 0 8 -12 8 -14 152 -2 152 4 0 5 5 1 11 -11 18 -11 159 1 159 7 0 7 3 0
8 -9 6 -13 266 -5 297 1 6 1 12 0 15 -8 19 -4 270 5 270 7 0 7 3 0 8 -12 8
-14 141 -3 158 4 6 5 14 1 18 -10 10 -10 158 -1 179 5 9 5 17 1 17 -10 0 -10
291 0 308 5 6 5 12 0 12 -10 0 -10 231 0 247 4 6 4 14 -1 17 -9 6 -9 147 0
162 4 6 5 14 1 18 -11 10 -9 186 2 186 7 0 7 3 0 8 -13 9 -13 225 0 234 7 5 7
8 0 8 -6 0 -10 43 -11 108 -1 150 -13 228 -52 342 -25 73 -104 234 -123 250
-3 3 -20 26 -37 51 -48 72 -208 229 -232 229 -5 0 -10 5 -10 10 0 6 -7 10 -15
10 -8 0 -15 5 -15 10 0 6 -4 10 -10 10 -5 0 -31 13 -57 29 -50 29 -188 87
-233 97 -14 3 -54 13 -90 21 -57 13 -362 28 -371 18z"/>
</g>
</svg>
